<?xml version="1.0" standalone="no"?>
<!DOCTYPE svg PUBLIC "-//W3C//DTD SVG 20010904//EN"
 "http://www.w3.org/TR/2001/REC-SVG-20010904/DTD/svg10.dtd">
<svg version="1.0" xmlns="http://www.w3.org/2000/svg"
 width="1000.000000pt" height="1000.000000pt" viewBox="0 0 1000.000000 1000.000000"
 preserveAspectRatio="xMidYMid meet">

<g transform="translate(0.000000,1000.000000) scale(0.100000,-0.100000)"
fill="#000000" stroke="none">
<path d="M0 6656 c0 -3234 1 -3345 18 -3341 11 2 19 -3 19 -11 0 -10 -4 -11
-14 -3 -17 15 -28 -12 -18 -48 5 -20 9 -23 15 -14 4 8 15 11 23 8 18 -7 30 26
15 41 -6 6 -5 12 3 17 7 5 10 4 5 -3 -3 -6 -2 -13 3 -17 6 -3 8 -12 6 -20 -3
-8 -7 -22 -10 -31 -4 -12 -9 -13 -18 -6 -10 8 -13 5 -15 -16 -1 -14 -6 -30
-11 -35 -5 -5 -7 3 -6 17 2 15 0 24 -5 21 -4 -3 -8 -60 -9 -127 -1 -73 2 -118
7 -110 8 11 10 10 15 -3 5 -12 11 -14 26 -5 13 7 22 7 26 0 4 -6 10 -8 15 -5
4 3 14 -3 21 -13 13 -16 12 -16 -6 -2 -16 11 -17 11 -8 0 19 -20 43 -21 37 -2
-3 10 1 6 9 -8 9 -14 13 -29 10 -34 -4 -5 -1 -6 6 -2 6 4 8 12 5 18 -5 7 -2 8
7 2 8 -5 19 -9 24 -9 6 -1 9 -7 7 -14 -2 -8 3 -11 12 -8 10 4 13 1 9 -8 -3 -8
-8 -13 -12 -11 -4 3 -7 -4 -7 -15 0 -17 3 -16 21 6 19 24 21 25 40 10 11 -9
14 -14 8 -10 -9 4 -11 1 -7 -10 6 -14 8 -14 21 2 8 10 11 11 7 3 -6 -12 -5
-13 7 -4 19 14 38 12 49 -6 6 -9 25 -15 49 -16 22 0 47 -7 57 -15 16 -12 17
-12 9 1 -7 12 -6 13 6 4 15 -11 115 -12 126 -1 3 4 13 1 21 -6 13 -10 14 -9 8
2 -7 10 -3 12 14 6 12 -4 28 -8 34 -9 6 -1 17 -5 24 -10 11 -7 11 -4 0 13 -10
17 -10 23 0 33 11 11 12 10 7 -3 -4 -10 0 -20 7 -25 7 -4 10 -4 6 1 -8 9 11
50 19 41 4 -3 12 -1 20 5 8 7 13 8 13 1 0 -5 14 -8 30 -7 17 1 33 -2 37 -8 4
-6 1 -7 -7 -2 -9 6 -11 4 -5 -4 5 -9 10 -10 18 -2 8 8 16 6 31 -7 11 -9 16
-11 12 -5 -4 7 -3 13 3 13 5 0 11 -5 13 -11 2 -5 12 -12 23 -14 11 -2 21 -4
23 -5 1 -2 6 -3 12 -4 5 0 17 -11 26 -24 11 -17 19 -20 28 -13 7 6 15 8 18 6
3 -3 29 -8 59 -11 29 -3 56 -7 60 -10 4 -2 10 3 13 12 5 12 10 14 20 5 7 -6
16 -8 19 -4 4 3 7 1 7 -4 0 -6 -12 -22 -27 -35 -24 -20 -28 -31 -28 -75 0 -28
3 -49 7 -46 5 2 8 -3 8 -11 0 -9 7 -13 20 -11 13 2 20 -2 20 -11 0 -8 4 -12
10 -9 6 3 10 1 10 -5 0 -6 5 -8 10 -5 12 8 42 -14 35 -25 -2 -4 11 -6 31 -5
19 1 39 -4 45 -12 6 -7 15 -11 19 -8 5 3 12 0 16 -6 4 -7 3 -9 -4 -5 -6 3 -13
2 -16 -3 -10 -16 11 -22 24 -6 10 12 15 12 34 0 13 -8 26 -12 31 -8 4 5 4 2 0
-6 -6 -11 -4 -13 9 -8 10 4 15 3 11 -3 -9 -14 9 -12 23 2 8 8 12 8 12 1 0 -13
-28 -25 -41 -17 -5 3 -9 0 -9 -7 0 -7 -3 -9 -7 -6 -3 4 -12 2 -20 -4 -7 -6
-13 -9 -13 -6 0 4 -20 -2 -45 -13 -25 -11 -45 -17 -45 -14 0 3 -20 -6 -45 -20
-25 -13 -43 -21 -40 -15 4 5 3 9 -2 10 -4 0 -15 2 -24 4 -12 2 -15 -2 -11 -18
5 -20 6 -20 13 -1 6 14 8 15 8 3 2 -27 -13 -31 -31 -7 -16 21 -17 22 -12 2 3
-12 -1 -26 -12 -35 -11 -9 -15 -9 -10 -2 4 7 2 13 -3 13 -6 0 -11 -8 -11 -17
0 -10 -5 -25 -11 -33 -9 -13 -10 -13 -6 2 3 9 -1 19 -9 22 -9 4 -12 11 -8 18
6 10 4 10 -8 0 -9 -8 -14 -20 -11 -29 5 -12 7 -12 15 -1 8 10 9 10 5 -2 -2 -8
-15 -15 -29 -15 -15 0 -30 -4 -35 -9 -5 -5 -2 -6 6 -1 8 5 12 4 8 -2 -3 -5
-23 -8 -44 -7 -45 2 -77 -12 -66 -29 4 -8 2 -8 -9 1 -13 10 -18 10 -24 1 -5
-8 -3 -10 7 -4 8 5 10 4 6 0 -12 -14 -38 -15 -31 -2 3 7 -2 3 -11 -8 -16 -19
-16 -19 -13 -1 2 10 -3 21 -11 24 -9 3 -11 0 -6 -9 6 -11 5 -12 -5 -2 -11 10
-18 9 -34 -5 -11 -9 -16 -11 -12 -4 4 7 1 12 -9 12 -9 0 -13 4 -10 10 3 6 -1
7 -9 4 -11 -4 -16 0 -17 12 0 11 -3 14 -5 7 -4 -8 -11 -7 -23 5 -10 9 -16 20
-14 25 6 11 -22 8 -33 -3 -7 -7 -11 -6 -11 4 0 8 4 13 8 10 4 -2 10 0 14 6 3
5 -3 10 -14 10 -11 0 -25 9 -31 20 -6 11 -15 18 -21 15 -5 -4 -9 -1 -9 5 0 6
-6 10 -12 9 -7 -1 -26 4 -43 11 -16 7 -39 15 -51 17 -12 2 -38 12 -60 22 -21
11 -45 18 -54 16 -11 -2 -16 6 -17 27 0 20 2 26 7 17 5 -7 6 -18 2 -24 -3 -5
2 -4 11 4 18 15 23 26 7 16 -6 -3 -10 1 -10 10 0 9 4 14 9 11 16 -11 6 21 -14
40 -18 18 -18 18 -12 1 4 -10 7 -21 7 -23 0 -3 5 -2 12 2 7 5 8 3 3 -6 -6 -10
-13 -7 -27 13 -12 17 -25 24 -35 20 -11 -5 -14 -3 -8 6 6 10 3 11 -15 1 -15
-8 -20 -8 -16 -1 4 6 0 11 -8 11 -9 0 -16 6 -16 13 0 8 -4 7 -10 -3 -9 -13
-10 -13 -10 0 0 13 -1 13 -10 0 -6 -10 -10 -11 -10 -2 0 19 4 27 13 24 5 -1 6
2 2 8 -11 17 -35 -8 -27 -28 3 -9 -9 -1 -27 18 -18 19 -30 29 -26 23 7 -15
-11 -18 -20 -4 -5 10 -37 7 -55 -4 -6 -3 -10 -2 -10 2 0 5 -21 8 -48 8 l-47
-1 -3 -115 -3 -115 31 -2 c18 -1 29 2 26 7 -4 5 7 3 24 -5 27 -14 78 -25 123
-27 9 -1 17 -5 17 -10 0 -5 16 -7 35 -4 19 3 38 1 41 -4 3 -5 0 -9 -7 -9 -7 0
-9 -3 -6 -6 4 -4 14 -1 22 6 9 7 15 9 14 4 -4 -21 2 -26 18 -13 15 13 15 12 5
-6 -7 -11 -16 -32 -22 -47 -5 -15 -22 -35 -37 -45 -15 -10 -34 -26 -41 -35 -7
-10 -22 -18 -32 -18 -10 0 -21 -4 -25 -9 -3 -6 -13 -10 -23 -10 -49 -2 -80 -6
-76 -10 2 -2 -3 -12 -11 -21 -14 -16 -14 -19 -1 -33 11 -11 12 -17 4 -19 -7
-3 -8 -9 -3 -19 14 -21 18 -62 6 -54 -13 7 -3 -23 13 -44 8 -11 8 -13 -1 -8
-6 4 -14 3 -17 -2 -4 -5 -2 -12 3 -15 10 -7 9 -62 -2 -71 -4 -3 -5 -2 -2 2 3
3 -5 11 -17 17 -12 6 -23 18 -25 26 -4 13 -3 13 5 1 16 -22 38 -21 39 1 2 20
1 20 -12 2 -8 -11 -15 -14 -15 -8 0 5 5 15 12 22 7 7 8 12 4 12 -5 0 -3 7 4
15 9 10 9 15 1 15 -10 0 -15 -13 -12 -32 0 -5 -12 -8 -29 -8 -16 0 -30 -5 -30
-11 0 -5 6 -7 13 -3 9 6 9 5 0 -7 -12 -15 -13 -124 -1 -133 5 -3 6 -3 3 1 -3
3 0 12 6 20 8 9 8 17 2 26 -12 15 -13 48 -1 41 12 -8 10 10 -5 26 -10 12 -9
12 6 0 10 -7 16 -19 13 -26 -5 -13 30 -51 39 -42 3 3 -1 11 -10 18 -8 7 -15
17 -15 23 0 6 7 1 16 -11 8 -12 20 -19 26 -16 7 5 8 2 3 -6 -5 -8 -3 -11 6 -8
8 3 27 -6 43 -21 16 -14 26 -20 22 -13 -5 8 -1 11 13 9 11 -2 24 -6 27 -10 4
-4 14 -1 22 6 13 10 14 9 7 -2 -6 -11 -4 -13 8 -8 10 4 17 1 17 -6 0 -8 3 -8
8 -2 4 7 51 11 117 10 97 0 110 2 107 17 -1 9 2 19 8 23 6 4 9 3 8 -2 -2 -4 2
-8 7 -8 6 0 9 4 7 10 -2 5 7 1 19 -10 22 -20 22 -20 16 0 -7 19 -7 19 8 1 14
-18 11 -41 -4 -32 -4 3 -8 -1 -8 -8 0 -11 4 -12 18 -3 11 7 17 20 15 32 -2 11
5 31 15 44 10 13 19 19 19 13 0 -5 -6 -15 -14 -21 -14 -12 -16 -35 -3 -47 4
-4 7 -2 7 4 0 23 2 27 16 43 8 9 11 18 8 22 -3 3 1 4 10 3 8 -1 19 -6 23 -11
4 -4 3 -5 -3 -2 -14 8 -37 -17 -41 -46 -2 -11 0 -18 3 -14 4 4 16 0 26 -9 13
-12 15 -21 7 -30 -7 -9 -6 -14 2 -20 7 -4 9 -3 5 4 -3 6 -2 14 4 17 8 5 8 11
0 20 -7 8 -7 16 -2 19 9 5 23 -6 34 -25 1 -3 -3 -13 -10 -22 -9 -10 -10 -17
-2 -22 6 -4 10 -3 9 2 -1 4 0 11 1 16 1 4 3 16 4 27 0 11 6 20 11 19 6 -1 9
-6 7 -12 -2 -6 6 -3 17 7 22 20 30 9 9 -13 -11 -10 -9 -11 6 -5 15 6 17 4 11
-6 -5 -8 -4 -11 3 -6 6 4 9 13 6 20 -4 9 3 14 20 14 14 0 23 -4 21 -9 -3 -4 0
-11 6 -15 8 -5 9 -3 5 5 -5 8 0 14 13 18 39 10 13 18 -53 17 -43 -1 -66 2 -66
10 0 7 -3 7 -8 1 -4 -5 -22 -11 -40 -12 -25 -2 -33 1 -30 13 2 8 6 14 9 12 11
-6 39 24 32 35 -4 6 -1 7 6 3 9 -6 8 -13 -5 -27 -9 -10 -13 -19 -7 -19 16 0
44 36 36 46 -5 5 3 0 16 -11 24 -20 24 -20 17 0 -6 16 -5 17 5 8 10 -10 9 -16
-2 -29 -12 -16 -12 -17 3 -11 10 3 18 2 18 -4 0 -6 5 -7 10 -4 6 4 7 12 3 18
-13 20 -11 34 3 34 9 0 10 -4 5 -11 -15 -17 13 -48 35 -39 11 3 22 11 26 17 5
7 8 7 8 -1 0 -21 2 -27 11 -45 5 -10 13 -17 17 -17 23 4 42 -2 37 -12 -4 -6 2
-5 13 2 15 10 18 17 11 26 -6 7 -9 18 -6 25 3 8 6 6 6 -5 1 -11 6 -15 13 -11
6 4 8 3 4 -4 -3 -6 -2 -13 4 -17 6 -4 7 -11 4 -17 -4 -6 -3 -8 3 -5 5 3 8 19
7 36 -1 17 1 30 5 29 3 0 9 1 14 2 4 1 12 3 17 4 6 0 10 6 9 11 -1 6 -4 9 -8
8 -4 -1 -8 5 -8 13 0 9 4 11 10 5 5 -5 15 -8 21 -7 6 2 8 1 4 -1 -3 -2 -4 -16
-2 -31 2 -15 1 -22 -3 -17 -11 15 -39 12 -35 -4 1 -7 -2 -10 -8 -6 -5 3 -10 1
-10 -4 0 -6 9 -11 21 -11 13 0 18 4 13 13 -4 6 5 1 20 -13 15 -14 27 -20 26
-15 -5 21 1 25 17 17 10 -5 27 -6 37 -3 21 8 30 37 15 47 -8 5 -13 -10 -10
-29 1 -5 -3 -6 -9 -2 -6 4 -7 12 0 24 6 12 5 22 -3 31 -8 9 -9 11 0 6 6 -3 14
0 17 6 3 7 4 6 3 -4 -1 -9 3 -17 8 -17 13 -1 14 20 2 37 -7 9 -13 9 -22 2 -9
-7 -15 -7 -19 -1 -4 5 -1 13 6 18 20 12 38 12 35 0 -1 -7 3 -11 9 -10 6 1 10
-10 8 -25 -1 -15 -3 -27 -4 -27 -1 0 -3 -13 -4 -28 -2 -17 1 -26 8 -24 6 3 10
9 9 14 -1 5 5 10 12 10 11 0 12 -4 4 -13 -7 -8 -6 -13 3 -17 17 -6 50 11 44
22 -3 5 2 8 12 7 9 0 17 4 17 9 0 6 -7 9 -17 9 -11 -1 -15 5 -12 19 5 26 17
38 12 12 -5 -29 26 -25 34 5 4 18 6 13 5 -17 -1 -23 3 -42 8 -42 6 0 9 8 8 17
-1 9 0 12 3 5 3 -7 11 -11 17 -9 7 1 8 1 4 -2 -4 -2 -1 -9 8 -16 14 -10 11
-12 -17 -10 -18 1 -33 3 -33 4 0 7 -36 6 -41 -1 -3 -5 3 -9 14 -9 11 0 32 -10
48 -22 16 -12 23 -15 17 -7 -13 16 -8 29 9 29 5 0 7 -4 3 -9 -3 -5 0 -13 6
-17 7 -4 9 -3 6 3 -4 6 2 18 13 28 11 10 17 21 15 26 -3 4 -1 10 4 13 11 7 9
-12 -5 -39 -9 -18 -11 -36 -4 -50 1 -3 3 -14 4 -24 0 -11 4 -22 8 -26 3 -4 5
1 4 12 -2 10 1 24 7 31 8 10 7 12 -2 10 -17 -4 -23 30 -8 39 7 4 23 8 37 9 66
2 81 5 76 12 -3 5 2 9 11 9 13 0 12 -4 -5 -18 -18 -14 -19 -18 -6 -23 8 -3 13
-2 10 3 -3 5 4 11 15 14 12 3 18 10 15 16 -4 5 -3 12 2 15 4 2 9 -6 10 -20 3
-48 6 -54 22 -69 14 -13 17 -13 17 -1 0 8 -4 14 -8 13 -4 -1 -7 3 -8 8 -1 6 5
10 12 10 6 1 11 6 10 12 -2 7 7 10 23 7 19 -3 24 -1 19 8 -4 7 1 4 9 -6 9 -11
16 -15 16 -9 0 7 12 9 32 6 26 -4 30 -2 20 9 -9 11 -6 14 13 14 22 0 23 -1 9
-17 -9 -11 -11 -19 -5 -23 5 -4 14 2 20 11 6 10 11 13 11 6 0 -6 -5 -15 -11
-18 -5 -4 -8 -12 -6 -18 2 -7 -2 -19 -10 -29 -12 -13 -12 -17 -1 -24 7 -4 10
-3 5 1 -4 5 3 20 15 33 13 14 17 22 9 17 -9 -5 -12 -4 -8 3 8 11 25 11 45 -2
11 -6 11 -11 0 -24 -8 -10 -9 -13 -1 -9 7 4 16 0 22 -10 6 -10 11 -13 11 -6 0
6 -5 15 -10 18 -19 12 -1 22 32 20 18 -2 35 -3 37 -4 2 0 -5 -13 -15 -29 -13
-20 -14 -24 -2 -14 12 10 17 10 26 -1 8 -10 8 -17 1 -24 -8 -8 -7 -13 2 -18 7
-5 10 -4 5 3 -3 6 -2 14 4 17 8 5 8 11 0 20 -13 15 -3 24 23 19 11 -1 16 0 13
3 -3 4 0 13 7 21 8 11 8 14 0 9 -6 -4 -15 -2 -19 4 -4 7 -3 9 4 5 5 -3 13 0
15 6 4 10 6 10 6 0 1 -7 6 -10 11 -7 8 5 7 12 -2 23 -11 14 -9 14 8 -1 11 -9
28 -17 38 -17 9 0 15 -4 12 -8 -3 -5 1 -9 9 -9 8 0 12 3 10 7 -2 4 7 5 21 2
19 -3 22 -7 13 -18 -6 -8 -15 -12 -19 -9 -5 3 -7 -3 -5 -12 1 -10 -3 -25 -9
-33 -9 -13 -9 -13 6 -2 10 8 17 17 16 20 -2 19 3 22 16 9 17 -17 70 -11 59 7
-5 8 -3 8 8 0 16 -12 28 -14 110 -14 56 -1 56 -1 54 -30 -2 -21 5 -35 24 -52
l26 -23 -21 25 c-23 27 -25 74 -4 93 10 10 12 8 7 -6 -7 -20 2 -17 38 12 18
15 19 15 6 -2 -15 -19 -14 -19 104 -16 11 0 31 0 45 1 43 1 51 -2 45 -12 -4
-6 -12 -7 -18 -3 -8 5 -8 2 0 -9 7 -8 9 -19 5 -23 -4 -5 -1 -5 6 -1 7 4 10 11
7 16 -3 5 0 12 6 16 8 5 1 17 -22 36 l-34 30 35 -23 c19 -13 38 -27 41 -32 9
-13 20 -11 30 5 6 9 8 6 6 -9 -1 -18 -6 -22 -24 -19 -12 3 -22 2 -22 -2 1 -4
0 -9 -1 -12 -7 -18 -7 -41 0 -45 4 -2 7 5 6 18 -1 19 5 22 39 25 22 2 45 8 52
13 8 7 11 5 8 -8 -1 -10 -8 -17 -15 -15 -6 1 -9 -2 -6 -7 4 -5 19 -3 37 6 23
11 27 18 19 28 -8 10 -8 15 1 21 7 4 9 3 5 -4 -3 -6 -2 -13 4 -17 6 -4 8 -11
5 -16 -11 -16 28 -10 49 8 20 17 20 17 7 1 -10 -13 -10 -18 -2 -18 7 0 9 -5 5
-11 -4 -8 -9 -7 -15 2 -5 8 -9 9 -9 3 0 -6 7 -17 16 -24 8 -8 14 -9 13 -4 -1
5 0 12 1 17 1 4 3 12 4 19 0 6 9 12 19 14 9 1 15 -2 11 -7 -3 -5 5 -7 18 -5
13 1 35 0 49 -4 14 -4 33 -3 43 2 14 8 16 5 12 -15 -3 -16 1 -24 10 -24 9 0
10 4 4 12 -5 6 -5 16 0 25 8 13 10 13 10 -1 0 -9 6 -22 13 -28 10 -8 14 -7 14
4 0 8 -4 12 -9 9 -4 -3 -8 -1 -8 5 0 5 12 11 28 13 18 2 26 8 24 18 -2 8 0 11
4 7 10 -10 15 -39 5 -33 -4 3 -8 -5 -8 -17 -2 -18 0 -17 17 8 10 16 17 32 14
36 -2 4 0 10 5 14 12 7 4 -45 -9 -61 -7 -7 -5 -11 5 -11 8 0 12 4 9 8 -2 4 2
13 9 21 7 7 12 30 12 50 -1 21 1 35 4 32 3 -3 6 -20 6 -37 0 -17 6 -32 14 -35
8 -3 11 0 8 5 -3 5 0 10 8 10 11 0 12 -4 4 -14 -6 -7 -8 -13 -4 -13 4 0 1 -8
-6 -17 -13 -16 -12 -17 4 -4 13 11 17 11 17 1 0 -8 3 -10 6 -7 4 4 1 13 -6 22
-13 16 -14 15 40 20 17 1 35 3 41 4 5 0 7 7 3 14 -6 9 -4 9 8 -1 13 -11 18
-11 24 0 14 22 13 40 -1 34 -8 -3 -16 -2 -19 3 -3 4 14 8 36 10 23 1 44 3 47
4 3 1 6 -1 6 -4 0 -3 6 -13 13 -22 10 -12 10 -17 1 -23 -7 -4 -9 -3 -5 4 3 6
-1 15 -11 20 -23 11 -43 10 -44 -3 0 -5 -5 -15 -10 -22 -7 -7 -6 -14 1 -18 6
-3 7 -11 4 -17 -4 -7 -2 -8 5 -4 6 4 9 11 6 16 -3 5 -1 11 5 15 6 4 8 10 6 14
-3 4 1 8 9 8 13 0 13 -3 0 -17 -14 -15 -12 -17 20 -18 20 -1 34 2 31 7 -3 4 1
8 8 8 8 0 13 -7 11 -16 -1 -9 -11 -16 -23 -16 -12 0 -22 -3 -22 -7 0 -5 0 -11
0 -14 0 -4 7 -1 15 6 12 10 15 10 15 -1 0 -8 9 -1 20 16 15 23 17 32 7 45 -10
13 -10 13 5 2 9 -8 15 -19 12 -26 -2 -6 2 -20 11 -31 14 -19 15 -19 8 -1 -5
14 -3 17 7 11 9 -5 11 -4 6 4 -4 6 -13 8 -19 5 -7 -4 -8 -3 -4 1 4 5 28 8 53
6 36 -2 44 0 38 11 -6 10 -5 11 7 1 8 -6 18 -11 22 -11 5 0 11 -3 14 -6 3 -3
-3 -4 -14 -2 -13 3 -19 -2 -21 -17 -1 -17 1 -19 8 -7 5 8 13 15 17 15 4 1 18
6 29 13 12 6 25 8 29 4 4 -4 6 0 3 8 -3 8 -11 15 -19 15 -7 0 -14 8 -15 18 -1
12 -1 13 3 2 2 -9 10 -12 16 -8 16 10 47 14 47 7 0 -14 -43 -64 -55 -64 -7 0
-12 -8 -11 -17 0 -10 -5 -17 -12 -15 -8 1 -11 -1 -8 -6 3 -5 -1 -18 -9 -28
-13 -18 -13 -18 -11 7 2 17 -2 26 -11 26 -8 0 -12 -6 -9 -14 3 -7 0 -13 -6
-13 -7 0 -4 -6 5 -13 15 -11 11 -20 -43 -92 -85 -112 -123 -193 -128 -271 -4
-55 -1 -69 28 -123 45 -83 153 -184 395 -368 232 -177 264 -203 249 -203 -29
0 -194 54 -239 78 -27 15 -225 160 -440 322 -214 162 -471 355 -570 429 -194
145 -238 180 -243 196 -2 6 -6 12 -9 15 -4 3 -3 -1 1 -7 9 -16 1 -16 -23 -1
-10 6 -26 8 -35 5 -31 -12 -17 -52 37 -113 59 -65 272 -308 527 -599 192 -220
200 -230 200 -267 0 -32 -21 -40 -162 -57 -239 -31 -472 -156 -614 -330 -60
-73 -110 -151 -97 -151 5 0 24 25 42 57 73 121 234 262 360 315 l51 21 103
-51 c138 -68 267 -112 328 -112 47 0 49 1 49 27 0 31 -95 130 -171 179 l-44
28 73 12 c39 6 75 13 78 17 5 5 135 -82 154 -103 3 -3 25 -18 49 -34 25 -16
50 -33 55 -38 6 -5 72 -52 146 -104 180 -126 205 -147 197 -167 -6 -15 -11
-15 -59 2 -29 11 -98 38 -153 61 -128 53 -149 60 -166 49 -24 -15 2 -40 104
-101 l97 -58 314 2 314 3 -181 125 c-409 283 -419 290 -393 326 13 16 20 17
92 6 109 -17 117 -16 111 8 -6 25 -5 25 90 -1 106 -27 191 -58 233 -83 63 -37
200 -138 200 -147 0 -18 -31 -8 -166 55 -132 62 -177 74 -138 36 11 -10 118
-87 239 -172 l221 -154 118 -1 117 -1 -23 25 c-47 51 -206 179 -293 236 -105
68 -260 145 -360 178 -53 17 -87 38 -139 82 -37 32 -146 116 -241 187 -382
285 -452 394 -368 572 43 90 88 151 472 623 58 72 681 817 723 867 18 20 38
17 38 -5 0 -7 -50 -71 -111 -142 -552 -645 -1008 -1215 -1065 -1332 -35 -71
-42 -138 -19 -187 69 -146 390 -277 905 -370 674 -121 1339 -111 1729 26 112
39 247 107 341 171 118 81 314 283 399 410 355 536 371 1204 36 1617 -63 78
-201 198 -339 295 -51 35 -111 85 -134 109 -36 39 -42 52 -42 90 0 37 6 53 32
83 18 21 36 40 39 43 27 21 59 88 59 122 0 151 -196 247 -479 236 -98 -4 -129
-10 -198 -36 -93 -34 -192 -96 -276 -172 -49 -44 -400 -428 -549 -600 -42 -48
-50 -53 -62 -40 -13 13 4 37 146 195 89 99 247 266 352 370 212 211 256 241
421 291 77 22 109 26 220 27 193 0 339 -43 466 -139 40 -31 104 -72 140 -92
61 -33 67 -40 62 -63 -3 -16 1 -30 12 -39 25 -21 71 7 68 41 -1 14 0 17 3 7 7
-23 19 -23 42 0 16 18 22 16 162 -30 79 -26 149 -48 155 -47 5 0 -5 6 -22 12
-18 7 -33 16 -34 21 -1 4 23 39 54 76 45 55 59 67 79 63 17 -3 27 3 41 25 9
17 17 41 17 54 0 15 61 97 186 248 103 124 181 219 173 212 -7 -6 -16 -12 -20
-12 -10 0 -53 110 -45 117 7 8 124 -46 321 -148 337 -175 410 -217 407 -233
-2 -11 6 -7 25 12 15 15 26 33 25 40 -2 7 7 16 20 22 15 5 17 9 7 9 -9 1 -24
-8 -34 -19 -27 -29 -55 -21 -215 65 -80 43 -234 122 -342 176 l-197 98 37 28
c40 30 79 73 80 87 1 8 21 21 91 56 31 16 32 17 11 23 -12 3 -20 9 -17 14 3 4
-1 14 -9 21 -8 7 -14 8 -14 2 0 -17 -36 -11 -54 9 -9 10 -14 26 -10 37 5 18 5
18 -6 1 -10 -15 -8 -23 11 -43 12 -13 29 -24 36 -24 8 0 11 -5 8 -10 -3 -5 2
-10 12 -10 14 -1 13 -5 -10 -23 -48 -38 -105 -95 -100 -101 3 -3 -6 -8 -21
-12 -14 -3 -26 -10 -26 -15 0 -5 -19 -6 -42 -3 -30 5 -39 4 -34 -4 10 -16 5
-15 -47 7 -25 11 -50 29 -56 40 -9 17 -7 21 19 32 28 13 29 14 10 31 -11 10
-24 18 -30 18 -6 0 -8 10 -4 25 4 15 1 32 -6 40 -27 32 56 103 106 91 27 -7
29 -4 12 24 -7 10 -10 21 -8 23 3 3 133 10 290 16 157 6 303 14 325 16 22 2
130 7 240 10 110 4 209 8 221 10 11 2 115 6 230 10 l209 7 328 -580 c180 -319
327 -586 327 -594 0 -7 5 -20 10 -28 7 -10 8 -4 4 20 -3 22 0 42 8 53 13 17
17 14 51 -39 48 -77 75 -190 59 -251 -7 -24 -18 -58 -27 -75 l-14 -33 5 30 c4
22 3 26 -5 15 -12 -18 -15 -15 -28 30 l-11 35 3 -37 c1 -21 8 -44 14 -52 10
-12 8 -19 -8 -35 l-21 -21 -6 25 c-6 24 -47 45 -61 32 -7 -8 -7 -56 0 -64 4
-3 18 2 32 11 l25 16 0 -35 c0 -20 4 -34 9 -30 5 3 12 1 16 -4 3 -6 13 -7 22
-4 13 5 15 2 10 -11 -4 -10 -7 -28 -7 -42 0 -29 -43 -54 -94 -54 -29 0 -34 3
-29 17 5 15 3 16 -8 6 -13 -13 -48 -19 -36 -7 4 4 -2 19 -13 34 -22 31 -26 50
-10 50 6 0 10 8 10 18 0 10 6 24 13 32 10 12 9 12 -4 2 -9 -7 -22 -26 -29 -42
-10 -25 -10 -34 5 -56 9 -14 14 -28 11 -31 -8 -8 -46 59 -46 82 0 26 42 94 47
78 11 -31 61 3 55 38 -4 22 28 33 68 24 17 -4 30 -3 30 1 0 4 -9 37 -20 75
l-20 68 -35 -6 c-31 -5 -39 -1 -72 33 -39 40 -211 159 -219 151 -3 -2 28 -24
68 -48 100 -60 168 -130 193 -199 11 -30 21 -58 23 -62 2 -5 0 -8 -5 -8 -5 0
-17 22 -27 49 -13 36 -34 65 -81 108 -89 81 -145 127 -150 122 -2 -2 26 -29
62 -59 91 -77 146 -136 160 -173 19 -53 16 -65 -11 -36 -13 14 -58 54 -100 89
-43 35 -87 80 -99 99 -12 20 -27 37 -33 38 -20 4 7 -64 41 -105 29 -33 31 -42
26 -80 l-6 -43 -95 61 c-52 33 -139 86 -193 118 -74 43 -96 61 -93 75 8 33
-15 5 -43 -53 -15 -33 -23 -56 -18 -53 5 3 15 21 23 39 8 19 19 34 24 34 12 0
310 -181 358 -217 19 -14 30 -29 25 -33 -4 -4 -34 -11 -66 -15 -57 -6 -59 -6
-52 14 3 12 4 21 1 21 -2 0 -17 -38 -32 -84 l-27 -83 -48 15 -48 15 15 28 c16
33 18 58 4 79 -8 11 -9 8 -4 -13 6 -28 -12 -87 -27 -87 -21 0 -99 45 -99 58 0
8 -6 12 -15 8 -8 -3 -15 -1 -15 4 0 6 -11 10 -25 10 -15 0 -40 7 -56 16 -43
22 -37 62 14 89 23 13 35 25 32 34 -4 10 -2 11 7 4 7 -6 22 -7 33 -3 16 6 14
8 -14 13 -24 5 -32 11 -27 22 4 12 -3 10 -32 -6 -23 -13 -38 -30 -39 -43 0
-11 -6 -34 -12 -50 l-12 -29 -34 33 c-19 18 -32 37 -29 42 8 13 -10 10 -25 -4
-11 -11 -12 -9 -6 10 3 12 2 22 -3 22 -6 0 -9 8 -7 18 1 9 0 11 -2 5 -6 -17
-18 -16 -32 0 -8 10 -6 23 9 52 25 49 27 90 4 81 -9 -3 -35 4 -58 16 -68 37
-70 40 -44 55 22 14 22 14 -10 10 -26 -3 -32 0 -30 12 4 22 56 27 64 7 4 -9
18 -16 34 -16 24 0 29 -5 33 -27 3 -20 4 -15 6 15 3 91 82 172 169 172 19 0
41 -16 81 -57 63 -67 48 -41 -19 34 -25 28 -65 60 -89 72 -39 20 -41 24 -28
39 27 31 75 126 97 191 17 52 19 66 8 72 -16 11 -122 10 -163 -1 -19 -5 -3 -7
45 -4 l75 4 -52 -26 c-28 -14 -79 -50 -113 -81 -33 -30 -63 -54 -65 -52 -11
12 -7 99 6 115 9 12 10 15 1 10 -7 -4 -19 -3 -26 3 -10 9 -16 4 -26 -20 -12
-29 -11 -36 19 -91 18 -32 37 -80 42 -106 8 -45 8 -44 4 15 l-5 62 56 50 c54
48 159 111 184 111 33 0 -30 -154 -100 -245 -62 -81 -129 -120 -131 -77 0 9
-6 -4 -13 -31 -16 -60 -36 -82 -91 -97 -57 -16 -136 -6 -218 27 -77 31 -116
73 -118 128 -1 24 -3 31 -6 18 -6 -29 -18 -28 -68 2 -22 14 -47 25 -56 25 -12
0 -15 7 -11 25 6 34 -20 71 -68 95 -50 26 -78 25 -107 -2 l-23 -22 -83 44
c-45 24 -83 44 -85 46 -2 1 3 12 10 23 11 18 11 26 -2 48 -16 28 -74 73 -94
73 -6 -1 6 -10 26 -21 42 -21 71 -59 66 -84 -2 -8 -115 -157 -253 -330 -240
-302 -251 -314 -280 -310 -16 3 6 -7 50 -21 449 -142 498 -159 736 -260 91
-39 107 -49 117 -76 14 -38 11 -43 -20 -28 l-23 11 24 -19 c15 -12 22 -25 18
-36 -5 -14 -18 -11 -105 19 -54 19 -128 52 -164 74 -66 40 -145 76 -248 112
-73 26 -51 8 30 -24 106 -42 183 -78 178 -83 -3 -2 -36 7 -74 22 -38 14 -82
28 -99 30 -23 4 -20 1 15 -14 25 -9 43 -22 40 -27 -6 -11 -163 -13 -230 -3
-25 4 -38 3 -30 -1 26 -15 304 -119 335 -127 l30 -7 -28 27 c-31 29 -29 47 6
40 12 -2 60 -7 107 -10 104 -7 204 -37 248 -75 35 -31 61 -36 80 -17 16 16 37
-4 29 -26 -4 -11 -24 -16 -69 -19 l-63 -3 66 -2 c83 -2 102 12 70 57 -12 16
-21 43 -21 60 0 25 -3 29 -17 24 -15 -6 -16 -5 -3 8 13 14 25 11 109 -29 82
-38 368 -187 381 -199 2 -2 -1 -13 -8 -23 -7 -11 -12 -26 -12 -34 0 -17 28
-41 37 -32 4 3 -1 12 -9 19 -25 19 -6 54 34 62 18 4 39 12 45 17 9 7 15 5 20
-8 4 -11 2 -19 -6 -22 -8 -3 -26 -16 -40 -31 -15 -14 -17 -18 -6 -8 21 17 24
16 106 -34 251 -153 674 -466 674 -499 0 -12 -13 -14 -66 -12 -40 2 -69 -1
-73 -7 -5 -7 -19 -5 -44 8 -20 10 -62 26 -92 36 -61 20 -945 401 -1343 579
-32 14 -65 26 -74 26 -32 0 17 -38 166 -126 811 -483 1285 -766 1327 -795 36
-25 284 -298 284 -313 0 -3 44 -59 98 -123 55 -65 129 -158 165 -206 l67 -88
0 43 c0 24 -8 64 -17 90 -16 44 -16 48 0 66 14 15 17 40 17 142 0 136 1 133
-87 233 -33 37 -44 77 -21 77 6 0 33 -18 60 -41 l48 -40 0 36 c0 30 -10 46
-75 114 -47 49 -75 86 -75 100 0 13 -13 35 -28 51 -28 27 -28 28 -10 50 11 14
16 30 12 42 -6 19 -4 18 27 -3 19 -13 36 -27 39 -31 3 -4 12 -3 20 2 24 15 39
12 65 -15 l25 -24 0 3879 0 3880 -5000 0 -5000 0 0 -3344z m2062 2538 c41 -40
68 -96 68 -143 0 -45 -40 -100 -91 -127 -26 -13 -30 -13 -41 6 -7 11 -16 20
-20 20 -4 0 -35 21 -69 47 l-61 46 4 46 c6 61 26 101 65 127 42 28 101 19 145
-22z m-407 -171 c58 -30 175 -116 210 -154 42 -46 96 -153 119 -233 23 -78 14
-127 -32 -178 -44 -48 -71 -63 -147 -79 -51 -10 -71 -9 -135 5 -147 34 -229
111 -306 287 -45 106 -47 112 -40 180 8 91 40 165 78 185 69 36 167 30 253
-13z m-935 -178 c17 -20 7 -338 -13 -415 -8 -30 -35 -98 -61 -151 -50 -104
-80 -135 -122 -125 -23 6 -24 9 -18 59 11 86 22 136 23 106 1 -15 8 -33 17
-40 50 -41 149 204 161 402 6 91 -5 133 -32 123 -19 -8 -19 1 1 31 19 29 27
31 44 10z m-130 -30 c11 -14 7 -32 -36 -145 -10 -24 -22 17 -23 73 -1 75 28
110 59 72z m70 -104 c0 -22 -5 -52 -11 -68 -6 -15 -11 -40 -11 -56 0 -15 -4
-25 -9 -22 -5 4 -9 0 -9 -7 0 -7 -5 -5 -11 6 -20 34 13 186 40 186 6 0 11 -18
11 -39z m540 -238 c140 -73 239 -143 298 -211 29 -33 52 -63 52 -67 0 -5 12
-33 27 -64 49 -105 68 -265 35 -298 -10 -10 -28 -34 -40 -53 -30 -49 -125
-143 -148 -146 -10 -1 -51 -16 -90 -32 -92 -39 -157 -51 -279 -54 -123 -3
-173 6 -250 45 -98 49 -121 72 -170 169 -41 82 -45 97 -45 162 0 85 23 245 44
303 11 32 115 200 143 233 2 3 12 -5 21 -18 10 -13 32 -24 52 -27 30 -4 47 3
125 58 102 72 85 72 225 0z m-573 32 c-8 -20 -27 -20 -27 1 0 8 5 12 10 9 6
-3 10 -1 10 6 0 7 3 10 6 6 4 -3 4 -13 1 -22z m-1 -95 c-7 -47 -26 -91 -36
-85 -15 10 19 125 37 125 3 0 3 -18 -1 -40z m2523 -526 c1 -27 5 -31 28 -31
18 0 36 -11 53 -32 15 -17 32 -31 38 -31 7 0 12 -4 12 -10 0 -5 -8 -10 -18
-10 -19 0 -26 -16 -65 -155 -8 -29 -19 -49 -26 -47 -7 1 -10 -1 -7 -6 3 -5 -1
-26 -9 -48 -8 -24 -10 -43 -4 -48 5 -6 9 -27 9 -47 0 -29 -7 -43 -30 -63 -45
-38 -92 -43 -154 -17 -28 11 -55 21 -59 21 -4 0 -7 -20 -7 -44 0 -64 -18 -67
-22 -4 -3 52 -3 53 -40 59 -21 3 -46 13 -56 22 -17 16 -20 15 -42 -8 -31 -33
-43 -32 -74 7 -20 26 -28 30 -38 20 -9 -9 -9 -15 0 -24 18 -18 14 -30 -7 -23
-11 3 -22 1 -26 -5 -9 -15 -25 -12 -25 4 0 7 -10 17 -22 20 -21 6 -21 7 -5 17
10 6 17 22 17 39 0 17 -7 33 -17 39 -15 8 -16 12 -5 22 17 18 15 40 -5 54 -13
9 -18 30 -20 78 -2 54 1 68 17 82 28 25 25 44 -7 56 l-28 11 28 10 c17 6 27
17 27 29 0 22 15 26 23 5 4 -9 15 -12 34 -8 25 5 27 4 14 -11 -34 -42 33 -71
70 -31 25 26 49 30 67 12 15 -15 24 -6 16 16 -3 9 -16 16 -28 17 -20 0 -20 1
-1 9 32 13 63 52 68 85 l4 30 2 -31 c2 -46 50 -88 93 -81 18 2 41 1 50 -4 13
-7 20 -3 30 18 16 33 66 43 91 19 18 -18 27 -11 27 23 0 14 3 37 7 51 l7 25 7
-25 c4 -14 7 -39 8 -56z m-1323 -223 c-9 -14 -33 -14 -41 -1 -4 6 -1 18 6 26
11 13 14 13 27 0 8 -8 11 -19 8 -25z m122 11 c3 -16 -2 -22 -16 -22 -24 0 -35
23 -19 39 16 16 31 8 35 -17z m129 -3 c14 -14 6 -39 -12 -39 -18 0 -28 17 -21
35 6 18 18 19 33 4z m-409 -37 c3 -17 -2 -22 -17 -22 -14 0 -21 6 -21 18 0 38
33 41 38 4z m509 -3 c16 -16 5 -39 -18 -39 -12 0 -19 7 -19 18 0 31 17 41 37
21z m93 -29 c0 -21 -33 -29 -45 -10 -9 15 4 30 26 30 12 0 19 -7 19 -20z
m-884 -5 c-11 -8 -24 -15 -30 -15 -5 0 -1 7 10 15 10 8 24 14 29 14 6 0 1 -6
-9 -14z m993 -9 c9 -10 8 -16 -4 -26 -19 -16 -41 1 -32 24 8 20 21 20 36 2z
m-832 -12 c8 -22 -18 -37 -36 -20 -7 8 -10 19 -7 25 10 16 36 13 43 -5z m937
-10 c7 -19 -1 -34 -19 -34 -18 0 -28 17 -21 35 7 20 32 19 40 -1z m-79 -74 c0
-8 -10 -16 -22 -18 -18 -3 -23 2 -23 18 0 16 5 21 23 18 12 -2 22 -10 22 -18z
m-938 -1 c14 -14 6 -39 -12 -39 -18 0 -28 17 -21 35 6 18 18 19 33 4z m849
-58 c-4 -6 -16 -11 -27 -11 -21 0 -27 35 -6 43 16 6 41 -18 33 -32z m5164 -5
c0 -2 -7 -7 -16 -10 -8 -3 -12 -2 -9 4 6 10 25 14 25 6z m-6103 -22 c9 -23
-13 -40 -32 -24 -12 10 -13 16 -4 26 15 18 28 18 36 -2z m860 -9 c7 -21 2 -25
-24 -19 -13 4 -20 11 -16 20 7 19 32 18 40 -1z m-235 -48 c12 -59 56 -137 114
-203 63 -72 154 -222 154 -254 0 -24 31 -152 61 -249 10 -35 19 -78 19 -97 0
-28 4 -34 20 -34 12 0 39 -17 61 -38 l41 -37 -23 -64 c-21 -61 -21 -65 -4 -77
16 -12 7 -24 -96 -127 -74 -73 -139 -128 -186 -156 -89 -53 -97 -62 -90 -106
5 -30 2 -37 -23 -55 -15 -11 -41 -23 -58 -26 -25 -5 -33 -1 -60 34 -36 46
-112 176 -112 193 0 6 19 31 43 55 24 23 52 59 62 78 17 30 22 34 48 29 78
-16 214 54 244 125 24 56 12 161 -28 257 l-32 78 27 22 26 21 -31 78 c-18 43
-38 80 -45 83 -7 2 -61 -24 -121 -58 -105 -61 -323 -169 -372 -184 -29 -9 -41
7 -41 57 0 28 6 42 28 59 16 13 20 20 9 16 -10 -4 -24 -7 -31 -7 -7 0 -29 -11
-48 -24 l-36 -24 -12 41 c-11 37 -10 44 24 112 19 39 44 79 55 89 19 17 21 17
50 -5 81 -60 168 3 127 92 -9 19 -21 41 -27 50 -10 13 -3 34 34 110 25 52 55
105 66 119 19 24 20 24 56 7 37 -17 84 -23 86 -9 0 4 2 15 4 24 2 10 -1 20 -6
24 -13 8 -11 26 3 22 7 -3 16 -21 20 -41z m5420 31 c-7 -7 -12 -19 -12 -27 0
-9 -10 -27 -21 -41 l-21 -25 7 25 c3 14 7 31 7 38 1 6 4 10 6 7 3 -3 11 4 19
15 8 11 17 20 21 20 3 0 1 -5 -6 -12z m-5227 -18 c17 -5 63 -14 103 -20 55 -9
106 -28 201 -75 188 -93 366 -205 376 -236 4 -11 12 -19 20 -19 15 0 28 -27
19 -41 -3 -5 -10 -7 -15 -4 -5 4 -9 2 -9 -4 0 -5 5 -11 12 -13 22 -8 1 -37
-22 -31 -17 5 -20 11 -15 37 5 28 4 29 -5 7 -10 -24 -5 -61 8 -60 28 4 41 -4
45 -28 2 -16 5 0 6 34 0 34 6 65 13 69 7 4 8 3 4 -5 -5 -7 5 -23 23 -38 37
-33 38 -51 8 -129 -31 -78 -69 -136 -130 -201 -76 -81 -146 -93 -231 -42 -142
86 -181 129 -296 319 -34 58 -69 112 -77 121 -7 9 -11 18 -8 20 2 3 -32 50
-77 105 -77 94 -118 165 -132 227 l-7 28 78 -6 c43 -4 92 -11 108 -15z m-385
-21 c0 -11 -4 -17 -10 -14 -5 3 -10 13 -10 21 0 8 5 14 10 14 6 0 10 -9 10
-21z m5640 8 c0 -2 -12 -14 -27 -28 l-28 -24 24 28 c23 25 31 32 31 24z
m-5667 -50 c-3 -6 -11 -3 -19 8 -7 10 -11 22 -7 28 3 6 11 3 19 -8 7 -10 11
-22 7 -28z m-436 12 c14 -14 6 -39 -12 -39 -18 0 -28 17 -21 35 6 18 18 19 33
4z m407 -31 c22 -31 8 -43 -20 -17 -13 12 -21 26 -18 30 9 15 22 10 38 -13z
m5606 -28 c-20 -12 -33 -1 -19 16 9 11 15 12 23 4 8 -8 7 -13 -4 -20z m-5635
-14 c16 -21 23 -40 19 -50 -6 -15 -13 -12 -45 20 -30 29 -36 41 -28 51 17 20
25 16 54 -21z m-21 -61 c14 -22 13 -55 -3 -55 -9 1 -32 21 -60 52 -20 23 -22
30 -12 42 11 14 16 14 36 0 13 -8 31 -26 39 -39z m-434 19 c0 -14 -3 -14 -15
-4 -8 7 -15 14 -15 16 0 2 7 4 15 4 8 0 15 -7 15 -16z m70 -4 c0 -13 -7 -20
-20 -20 -13 0 -20 7 -20 20 0 13 7 20 20 20 13 0 20 -7 20 -20z m-91 -26 c12
-15 21 -40 21 -57 l0 -31 -33 32 c-18 18 -38 32 -45 32 -15 0 -15 23 0 38 18
18 35 14 57 -14z m428 -91 c-14 -14 -19 -12 -49 22 -18 21 -33 42 -32 47 1 4
2 16 3 26 1 13 13 5 48 -31 41 -44 44 -50 30 -64z m-112 40 c-4 -10 -11 -34
-14 -53 -6 -31 -11 -36 -46 -44 -67 -15 -127 -11 -172 12 -49 26 -57 36 -49
66 5 22 9 23 73 19 38 -3 84 -1 103 5 19 6 52 11 74 11 33 1 37 -2 31 -16z
m-338 -29 c24 -18 33 -33 33 -55 0 -32 -11 -37 -30 -14 -8 10 -25 15 -44 13
-27 -3 -31 0 -34 25 -3 29 12 57 31 57 5 0 25 -11 44 -26z m410 -48 c-5 -13
-11 -11 -37 12 -21 20 -29 34 -24 46 6 16 10 14 37 -12 18 -19 28 -36 24 -46z
m-29 -32 c-4 -3 -15 -3 -26 0 -14 5 -18 13 -15 27 l6 21 20 -21 c12 -11 18
-23 15 -27z m-263 5 c38 -17 61 -20 109 -16 34 2 68 6 76 8 28 7 25 -64 -6
-112 -41 -66 -45 -91 -24 -157 10 -31 28 -101 40 -155 22 -100 103 -281 168
-377 16 -25 54 -90 83 -145 29 -55 61 -112 71 -127 22 -32 23 -44 2 -52 -30
-12 -83 -6 -139 16 -63 24 -74 37 -151 183 -29 54 -54 126 -79 220 -58 221
-73 265 -118 340 -75 124 -97 193 -97 301 0 52 4 94 9 94 5 0 30 -10 56 -21z
m-115 -19 c25 -25 28 -85 4 -76 -9 3 -22 6 -30 6 -21 0 -36 47 -24 71 13 24
25 24 50 -1z m-13 -197 l35 -72 -17 -53 c-16 -48 -37 -78 -56 -78 -4 0 -10 19
-13 43 -20 171 -26 249 -20 273 l7 28 15 -34 c8 -19 30 -67 49 -107z m25 90
c25 -23 23 -45 -4 -41 -17 2 -24 11 -26 31 -4 31 4 34 30 10z m-108 -144 c10
-103 23 -171 45 -239 16 -52 35 -117 41 -145 6 -27 13 -58 16 -67 8 -26 -35
-23 -77 5 -44 29 -107 113 -119 157 -12 43 0 123 35 244 14 48 25 101 25 119
0 35 10 80 16 74 3 -2 11 -69 18 -148z m1014 74 c34 -82 35 -91 13 -105 -29
-18 -26 -44 10 -124 37 -80 50 -184 29 -234 -17 -42 -74 -84 -142 -105 -50
-16 -63 -17 -100 -6 -55 17 -104 68 -158 165 -23 42 -43 76 -45 76 -2 0 -15
-4 -30 -10 -25 -9 -27 -7 -49 43 -45 101 -55 86 116 171 84 41 191 97 238 125
47 27 88 50 91 50 4 1 16 -20 27 -46z m-868 -45 c0 -17 -3 -18 -15 -8 -8 7
-15 21 -15 32 0 17 3 18 15 8 8 -7 15 -21 15 -32z m1738 17 c-3 -3 -9 2 -12
12 -6 14 -5 15 5 6 7 -7 10 -15 7 -18z m-2 -66 c2 -19 0 -41 -5 -48 -8 -12
-13 -11 -30 10 -24 28 -25 39 -9 74 10 22 14 24 25 12 8 -7 16 -29 19 -48z
m122 25 c35 -34 35 -35 5 -15 -17 12 -38 21 -47 21 -9 0 -16 7 -16 15 0 24 18
18 58 -21z m17 -55 c25 -23 45 -48 45 -55 0 -8 -16 4 -36 26 -20 22 -43 40
-50 40 -15 0 -54 -56 -54 -77 0 -6 15 -21 33 -32 55 -36 69 -49 62 -61 -6 -10
-25 1 -89 54 -23 19 -27 29 -22 53 8 36 42 93 56 93 6 0 31 -19 55 -41z m-186
-25 c15 -20 18 -31 11 -45 -17 -31 -27 -30 -48 3 -16 25 -18 35 -9 50 16 24
22 23 46 -8z m379 -36 c-3 -7 -11 -13 -18 -13 -7 0 -15 6 -17 13 -3 7 4 12 17
12 13 0 20 -5 18 -12z m-429 -74 c-27 -29 -40 -30 -64 -4 -18 20 -18 21 11 51
l29 30 23 -27 23 -26 -22 -24z m-1629 47 c0 -14 -7 -19 -25 -17 -29 1 -32 11
-7 25 25 15 32 13 32 -8z m-65 -11 c-6 -9 8 -15 29 -11 4 1 14 -6 21 -16 11
-14 17 -15 39 -5 27 12 40 3 30 -22 -4 -11 -13 -14 -25 -11 -12 4 -19 1 -19
-7 -1 -8 -7 -5 -16 7 l-16 20 4 -20 c4 -23 -26 -55 -52 -55 -20 0 -34 49 -19
65 7 7 8 3 3 -10 -4 -11 -5 -18 -3 -15 2 3 13 15 23 28 l19 22 -31 -6 c-39 -8
-45 17 -9 34 29 14 29 14 22 2z m1221 -4 c39 -7 76 -16 83 -20 13 -8 15 -72 3
-80 -5 -3 -46 7 -90 22 -81 26 -82 27 -82 59 0 38 -6 37 86 19z m637 -37 c34
-28 37 -33 24 -47 -13 -13 -19 -11 -51 14 -35 28 -43 44 -29 57 11 11 17 9 56
-24z m-1670 -36 c14 -32 42 -123 61 -203 40 -160 77 -244 181 -409 36 -58 65
-108 65 -112 0 -14 -78 -21 -100 -9 -18 9 -21 17 -15 38 20 77 -1 126 -71 167
-52 31 -68 24 -78 -30 -4 -19 -11 -35 -15 -35 -17 0 -151 239 -151 269 0 6 -4
19 -9 29 -11 22 -36 104 -50 163 -6 26 -13 54 -17 63 -4 10 -1 16 9 16 9 0 33
11 53 25 20 14 44 25 53 25 9 0 22 13 28 30 6 17 16 30 21 30 5 0 21 -26 35
-57z m1435 21 c18 -13 21 -19 11 -30 -15 -18 -30 -18 -54 0 -16 12 -17 16 -6
30 17 20 21 20 49 0z m222 -53 c0 -18 -50 -52 -96 -66 -64 -19 -84 -19 -114 5
l-25 19 43 7 c28 4 60 20 90 44 l47 38 27 -20 c16 -11 28 -23 28 -27z m298 13
c-10 -10 -28 6 -28 24 0 15 1 15 17 -1 9 -9 14 -19 11 -23z m-578 -4 c14 -11
20 -20 13 -20 -18 0 -63 22 -63 32 0 14 24 8 50 -12z m-1015 -86 c11 -21 30
-55 42 -74 13 -19 21 -44 19 -55 -10 -51 -9 -50 -49 -99 l-23 -28 -52 82 c-38
59 -50 86 -42 95 5 6 13 33 16 59 5 36 12 50 28 56 30 12 38 8 61 -36z m1545
-6 c0 -11 -7 -10 -31 3 -17 9 -18 13 -8 26 12 13 14 13 26 -3 7 -10 13 -21 13
-26z m-844 -24 c-15 -16 -15 -14 -9 21 5 25 7 26 13 10 4 -11 2 -25 -4 -31z
m34 8 c-1 -22 -29 -72 -30 -52 0 13 -2 13 -9 0 -6 -8 -8 -17 -6 -20 2 -4 -2
-7 -9 -7 -7 0 -13 6 -13 13 0 7 5 10 10 7 6 -4 8 1 4 11 -4 10 -3 15 3 11 11
-7 35 34 31 54 -1 7 2 10 8 6 6 -3 11 -14 11 -23z m658 -14 c11 -11 17 -58 8
-58 -11 0 -86 45 -86 51 0 8 23 16 51 18 8 0 20 -4 27 -11z m-618 -13 c0 -8
-4 -15 -10 -15 -5 0 -10 7 -10 15 0 8 5 15 10 15 6 0 10 -7 10 -15z m-20 -49
c0 -3 -4 -8 -10 -11 -5 -3 -10 -1 -10 4 0 6 5 11 10 11 6 0 10 -2 10 -4z
m-1310 -56 c20 0 38 -25 26 -37 -9 -9 -82 27 -107 53 l-22 24 41 -20 c23 -11
50 -20 62 -20z m1280 6 c0 -27 -15 -42 -25 -26 -8 13 3 50 16 50 5 0 9 -11 9
-24z m-36 -43 c5 -11 -2 -26 -19 -42 l-25 -26 0 31 c0 45 31 71 44 37z m-1417
-39 c-3 -3 -12 -4 -19 -1 -8 3 -5 6 6 6 11 1 17 -2 13 -5z m1363 -23 c0 -18
-18 -41 -32 -41 -12 0 -9 45 4 58 14 14 28 6 28 -17z m-1260 -10 c0 -5 -11
-16 -25 -25 -25 -16 -30 -11 -19 18 6 17 44 23 44 7z m1210 -53 c0 -22 -28
-24 -36 -3 -9 21 16 51 27 33 5 -7 9 -21 9 -30z m-46 -24 c7 -19 -20 -54 -41
-54 -7 0 -13 10 -13 23 0 41 41 64 54 31z m416 -20 c11 -12 11 -30 3 -87 -6
-40 -9 -106 -7 -147 4 -63 3 -72 -8 -55 -8 13 -11 48 -9 100 2 44 4 98 5 120
0 22 -3 50 -7 63 -10 26 4 30 23 6z m-485 -34 c7 -23 -10 -50 -30 -50 -21 0
-26 42 -7 56 24 18 30 17 37 -6z m-55 -62 c0 -11 -39 -30 -50 -23 -16 10 -12
37 8 51 14 11 19 10 30 -3 6 -9 12 -20 12 -25z m587 -58 c-2 -30 -10 -68 -18
-85 -13 -29 -14 -27 -17 51 -1 44 2 94 9 110 l11 29 10 -25 c5 -14 8 -50 5
-80z m-665 8 c-15 -15 -27 14 -17 40 6 15 8 15 18 -6 7 -16 7 -26 -1 -34z
m718 -33 c0 -46 -36 -153 -66 -197 l-28 -40 -17 23 c-16 21 -15 24 12 62 31
42 69 151 69 195 0 25 1 25 15 6 8 -10 14 -32 15 -49z m-1330 -20 c0 -8 -2
-15 -4 -15 -2 0 -6 7 -10 15 -3 8 -1 15 4 15 6 0 10 -7 10 -15z m40 -39 c0
-12 -5 -7 -19 24 -11 24 -11 24 3 6 9 -11 16 -24 16 -30z m1347 22 c32 -35 73
-124 73 -159 l0 -31 -52 8 c-29 5 -68 8 -85 9 -18 0 -33 2 -33 5 0 2 9 27 20
55 11 27 24 69 30 93 12 48 18 51 47 20z m-1309 -34 c-4 -3 -12 5 -18 18 -12
22 -12 22 6 6 10 -10 15 -20 12 -24z m1091 -78 l22 -23 -35 -31 c-41 -36 -101
-49 -151 -32 -46 15 -44 26 5 33 26 3 55 18 82 41 24 20 46 36 49 36 3 0 15
-11 28 -24z m-659 -14 c0 -5 -23 -33 -51 -63 -54 -58 -55 -52 -1 24 31 43 52
59 52 39z m465 -22 c3 -5 -3 -10 -14 -10 -12 0 -21 5 -21 10 0 6 6 10 14 10 8
0 18 -4 21 -10z m517 -32 c-9 -9 -12 -7 -12 12 0 19 3 21 12 12 9 -9 9 -15 0
-24z m-1003 -47 c-21 -50 -50 -81 -76 -81 -25 0 -12 29 38 85 29 30 54 54 56
51 2 -2 -6 -27 -18 -55z m909 33 c58 -7 58 -7 65 -73 l5 -44 -50 6 c-74 9
-122 36 -126 70 -5 43 5 60 31 54 12 -3 46 -9 75 -13z m-128 -14 c-6 -11 -18
-20 -27 -20 -14 0 -14 2 2 20 10 11 22 20 27 20 5 0 4 -9 -2 -20z m243 -78
l-10 -47 -11 28 c-7 16 -12 46 -12 68 l0 39 21 -21 c18 -18 20 -26 12 -67z
m4647 78 c0 -5 -5 -10 -11 -10 -7 0 -17 -6 -23 -14 -15 -20 -51 -25 -51 -6 0
8 17 19 40 26 22 7 41 13 43 13 1 1 2 -3 2 -9z m-5585 -96 c12 -42 13 -58 3
-78 -6 -14 -15 -26 -20 -26 -6 0 -67 35 -97 57 -3 2 5 10 16 18 12 8 29 38 39
67 15 47 18 50 30 33 7 -10 20 -42 29 -71z m-375 18 c-20 -7 -40 7 -40 29 l0
22 26 -24 c14 -13 20 -25 14 -27z m1073 42 c14 -15 -8 -34 -40 -34 -19 0 -48
-7 -64 -16 -17 -8 -34 -13 -37 -9 -12 11 26 37 74 50 61 16 59 16 67 9z m-787
-51 c-8 -15 -15 -22 -16 -15 0 14 22 53 28 47 2 -2 -3 -16 -12 -32z m-250 -7
c35 4 54 3 59 -5 11 -18 1 -23 -55 -29 -43 -4 -55 -1 -75 18 -31 29 -33 47 -3
26 16 -12 36 -14 74 -10z m1163 -10 l74 -21 23 -68 c13 -38 20 -67 16 -65 -4
2 -56 21 -115 43 -115 42 -123 50 -111 110 5 28 10 35 23 29 9 -4 49 -16 90
-28z m-273 -12 c3 -19 3 -62 0 -94 -5 -42 -3 -69 8 -93 13 -33 13 -37 -11 -74
-14 -21 -29 -42 -33 -46 -4 -5 -7 71 -6 167 1 159 3 176 18 176 12 0 19 -11
24 -36z m141 -16 c2 -51 3 -50 -67 -63 -19 -4 -41 -12 -47 -17 -10 -8 -13 2
-13 46 0 55 1 58 33 71 17 8 46 14 62 12 28 -2 30 -4 32 -49z m-811 13 c-7
-11 -131 -61 -152 -61 -10 0 -14 7 -12 22 2 18 10 22 43 24 22 2 54 7 70 13
39 12 57 13 51 2z m40 -57 c42 -25 57 -55 34 -69 -5 -3 -10 -15 -10 -26 0 -11
-7 -19 -16 -19 -32 0 -154 45 -154 57 0 18 65 83 84 83 10 0 37 -12 62 -26z
m124 2 c0 -8 -18 -48 -41 -90 -22 -42 -36 -76 -31 -76 5 0 17 16 28 35 10 19
22 35 26 35 18 0 14 -20 -14 -64 -35 -54 -48 -50 -55 17 -5 38 0 51 33 104 37
57 54 69 54 39z m-285 -41 c0 -6 -32 -11 -72 -12 -60 -1 -71 1 -66 13 4 11 21
14 72 12 36 -2 66 -7 66 -13z m963 3 c21 -21 14 -25 -50 -32 -35 -4 -73 -14
-85 -22 -13 -8 -24 -10 -28 -4 -10 17 15 50 43 56 15 3 32 7 37 9 24 8 72 4
83 -7z m120 -22 c45 -15 89 -35 98 -43 20 -20 15 -80 -6 -74 -8 2 -40 12 -70
22 -30 10 -71 20 -91 24 -36 5 -36 5 -35 55 1 29 5 49 11 47 6 -2 47 -16 93
-31z m139 -133 c6 -111 1 -132 -59 -260 -68 -143 -225 -216 -315 -147 -30 23
-48 55 -22 38 22 -13 83 -23 112 -17 20 4 57 33 109 87 43 45 78 85 78 89 0 4
-37 -30 -83 -77 -78 -82 -84 -86 -126 -86 -109 0 -171 78 -174 218 -1 51 3 63
37 110 l38 52 22 -32 c12 -18 28 -33 36 -33 7 0 29 26 48 59 38 65 30 63 162
35 97 -21 123 -70 80 -154 -11 -21 -18 -41 -16 -43 3 -2 15 16 28 40 20 37 23
58 23 155 0 136 14 114 22 -34z m-935 115 c-7 -7 -12 -8 -12 -2 0 14 12 26 19
19 2 -3 -1 -11 -7 -17z m-318 4 c8 -14 -33 -72 -51 -73 -10 0 -37 -1 -60 -3
l-41 -2 19 37 c10 21 27 40 36 42 31 8 92 7 97 -1z m204 -95 c2 -20 -4 -49
-13 -66 l-15 -30 -36 24 c-20 14 -60 32 -90 42 -59 18 -68 30 -53 71 19 50 32
53 122 23 81 -27 82 -28 85 -64z m788 82 c3 -6 -3 -23 -14 -38 -10 -15 -29
-46 -41 -69 -12 -23 -28 -42 -35 -42 -12 0 -56 85 -56 108 0 33 128 69 146 41z
m-1013 -92 c10 -25 -8 -32 -80 -32 -74 0 -87 7 -55 31 23 18 128 18 135 1z
m126 -58 l62 -31 -7 -36 c-11 -63 -14 -64 -83 -20 -35 22 -81 43 -103 46 l-39
5 32 33 c18 19 43 34 54 34 12 0 50 -14 84 -31z m-289 -56 c0 -62 13 -73 48
-44 63 50 67 51 114 43 53 -10 158 -77 158 -100 0 -41 -51 -121 -118 -185 -82
-78 -128 -102 -185 -93 -86 14 -111 53 -110 168 2 100 19 181 51 241 30 56 42
48 42 -30z m425 58 c3 -10 1 -29 -4 -42 -5 -13 -13 -33 -17 -44 -6 -16 -8 -12
-14 20 -11 58 19 115 35 66z m-295 0 c0 -12 -97 -101 -110 -101 -15 0 -13 97
3 103 21 9 107 7 107 -2z m5575 -31 c3 -5 1 -10 -4 -10 -6 0 -11 5 -11 10 0 6
2 10 4 10 3 0 8 -4 11 -10z m-5315 -146 c0 -73 -15 -113 -81 -211 -52 -77 -97
-113 -167 -134 -53 -16 -102 -1 -158 47 l-39 34 52 -6 c92 -11 119 0 206 84
104 102 131 149 153 267 l7 40 13 -30 c7 -16 13 -58 14 -91z m1358 -162 c13
-85 -323 -349 -403 -318 -72 27 184 275 342 332 47 16 57 14 61 -14z m3135
-22 c3 -11 1 -18 -4 -14 -5 3 -9 12 -9 20 0 20 7 17 13 -6z m-217 -17 c-7 -7
-26 7 -26 19 0 6 6 6 15 -2 9 -7 13 -15 11 -17z m222 -19 c27 -17 52 -71 52
-109 0 -37 -62 -101 -118 -120 -26 -9 -55 -21 -64 -26 -23 -12 -41 -12 -33 0
3 5 -12 15 -32 21 -105 34 -138 137 -67 211 33 34 41 36 49 8 4 -12 12 -18 21
-15 8 3 14 0 14 -7 1 -7 12 2 26 18 15 17 23 25 20 18 -13 -24 12 -22 35 3 25
27 53 27 97 -2z m489 14 c60 -13 86 -35 85 -75 0 -15 6 -38 14 -50 22 -35 17
-59 -21 -96 -37 -36 -78 -47 -178 -47 -45 0 -48 2 -36 16 12 15 8 16 -53 12
l-67 -4 14 33 c8 19 10 31 5 28 -15 -9 -11 18 5 39 8 11 15 27 15 37 0 15 17
32 96 97 26 22 54 24 121 10z m-791 -33 c-22 -17 -36 -19 -36 -7 0 14 12 22
34 22 21 -1 21 -1 2 -15z m1136 -57 c4 -7 8 -23 8 -35 0 -17 -4 -20 -22 -15
-17 4 -20 2 -15 -11 9 -24 -28 -22 -53 3 -23 23 -24 33 -9 62 9 17 17 19 47
15 19 -4 39 -12 44 -19z m-610 -113 c-5 -28 -29 -34 -39 -9 -4 10 1 22 12 30
24 18 33 10 27 -21z m555 3 c-3 -8 -6 -5 -6 6 -1 11 2 17 5 13 3 -3 4 -12 1
-19z m-3479 0 c18 -18 15 -56 -10 -106 -25 -53 -180 -211 -258 -265 -46 -32
-49 -32 -15 -5 83 67 243 235 264 276 30 59 25 95 -14 103 -28 6 -28 7 -4 8
14 0 30 -4 37 -11z m3617 2 c3 -6 -1 -13 -10 -16 -19 -8 -30 0 -20 15 8 14 22
14 30 1z m-3718 -15 c-52 -18 -184 -95 -260 -152 -94 -70 -241 -225 -271 -285
-14 -28 -26 -45 -26 -37 0 53 171 241 314 346 95 70 228 143 261 142 11 0 4
-6 -18 -14z m-4 -76 c17 -27 -12 -78 -88 -155 -80 -80 -157 -140 -233 -178
-74 -37 -78 -32 -6 8 78 41 129 79 201 147 117 111 157 191 91 180 -5 0 -8 4
-8 10 0 15 31 7 43 -12z m-106 -19 c-121 -61 -286 -201 -324 -273 -8 -16 -17
-27 -20 -24 -9 9 52 89 103 137 91 85 252 191 288 190 6 -1 -15 -14 -47 -30z
m1140 -7 c13 -13 26 -35 29 -49 13 -51 -31 -164 -104 -266 -18 -27 -31 -48
-29 -48 3 0 -7 -13 -21 -28 -15 -15 -62 -69 -105 -119 -81 -94 -183 -195 -276
-273 l-53 -45 38 -32 c42 -37 51 -40 56 -18 4 17 158 -120 158 -141 0 -22 -10
-17 -62 27 -27 23 -52 39 -55 35 -3 -3 21 -37 53 -76 33 -39 70 -84 83 -100
l23 -30 -38 -35 c-22 -19 -43 -35 -47 -35 -36 -1 -137 98 -109 108 6 2 12 9
12 16 0 20 -108 144 -132 151 -13 4 -32 19 -44 33 l-20 25 -65 -52 c-179 -144
-460 -319 -631 -393 -113 -49 -187 -68 -259 -68 -220 0 -122 261 235 629 111
114 346 321 364 321 5 0 17 -11 26 -24 15 -24 14 -25 -47 -77 -218 -184 -388
-388 -418 -501 -11 -40 -10 -49 4 -72 35 -52 160 -28 335 65 103 55 246 148
333 218 l57 45 -84 104 c-46 57 -84 108 -84 113 0 14 13 10 41 -14 14 -12 59
-49 100 -81 41 -33 77 -64 81 -70 11 -16 259 242 319 334 79 120 97 181 62
213 -22 19 -68 31 -84 21 -7 -4 -24 -8 -39 -9 -69 -6 -249 -96 -405 -202 -82
-56 -95 -59 -119 -20 -12 19 -20 11 133 119 209 146 471 284 578 304 18 3 33
9 33 13 0 3 35 7 78 7 69 1 79 -1 99 -23z m2627 12 c3 -8 -2 -19 -13 -24 -15
-8 -17 -6 -15 12 3 28 2 27 13 27 5 0 11 -7 15 -15z m-214 -11 c0 -2 -9 -4
-20 -4 -11 0 -20 4 -20 9 0 5 9 7 20 4 11 -3 20 -7 20 -9z m-149 -37 c-16 -16
-26 0 -10 19 9 11 15 12 17 4 2 -6 -1 -17 -7 -23z m59 -12 c11 -13 10 -18 -5
-29 -15 -11 -16 -16 -5 -35 15 -30 -5 -57 -21 -28 -13 23 -26 22 -34 -4 -4
-11 -9 -19 -11 -16 -9 9 16 58 27 52 6 -4 9 -1 8 6 -4 20 10 69 20 69 5 0 14
-7 21 -15z m-1031 -42 c13 -8 33 -37 44 -64 16 -38 24 -46 34 -37 10 8 13 7
13 -5 0 -22 -26 -40 -49 -32 -36 11 -111 104 -111 137 0 26 3 29 23 23 12 -4
33 -14 46 -22z m1191 -37 c0 -8 7 -17 16 -20 18 -7 10 -26 -11 -26 -8 0 -23
10 -35 22 -15 16 -17 24 -8 30 20 12 38 9 38 -6z m-630 -54 c0 -26 -11 -34
-27 -21 -10 9 -10 15 -2 25 16 19 29 17 29 -4z m75 -2 c0 -7 -6 -15 -12 -17
-8 -3 -13 4 -13 17 0 13 5 20 13 18 6 -3 12 -11 12 -18z m65 -15 c0 -8 -7 -15
-15 -15 -16 0 -20 12 -8 23 11 12 23 8 23 -8z m347 -20 c9 -21 9 -25 -6 -25
-9 0 -34 -9 -54 -19 -36 -18 -38 -18 -47 -1 -15 27 -14 28 35 36 28 4 45 11
45 20 0 22 14 16 27 -11z m-92 5 c3 -5 1 -10 -4 -10 -6 0 -11 5 -11 10 0 6 2
10 4 10 3 0 8 -4 11 -10z m-928 -21 c12 -7 28 -9 39 -4 33 14 77 4 127 -27 47
-30 48 -31 42 -72 -5 -36 -1 -47 30 -88 35 -48 60 -59 83 -36 20 20 14 40 -24
79 -54 55 -43 73 39 67 81 -7 117 -24 124 -60 5 -27 9 -28 57 -28 28 0 60 0
71 0 11 -1 34 2 50 5 35 7 93 -20 109 -50 6 -10 21 -28 34 -38 13 -11 21 -25
18 -33 -3 -7 -1 -16 3 -19 14 -8 -9 -83 -35 -110 -29 -32 -97 -34 -153 -5 -21
10 -41 17 -44 13 -3 -3 -22 -2 -41 1 -43 8 -106 65 -106 96 0 12 -13 34 -30
50 -28 27 -30 27 -46 9 -9 -11 -14 -19 -10 -19 16 0 -28 -51 -49 -56 -12 -3
-51 2 -86 12 -80 22 -294 25 -394 5 -62 -12 -75 -11 -108 2 -44 19 -54 39 -37
72 12 22 57 48 85 48 7 0 12 15 11 43 -1 34 5 49 29 73 16 17 46 36 67 42 21
5 38 14 38 20 0 26 69 32 107 8z m481 -11 c-6 -18 -28 -21 -28 -4 0 9 7 16 16
16 9 0 14 -5 12 -12z m552 -52 c0 -5 -7 -1 -15 10 -8 10 -14 24 -14 29 0 6 6
1 14 -9 8 -11 15 -24 15 -30z m-600 24 c0 -5 -4 -10 -10 -10 -5 0 -10 5 -10
10 0 6 5 10 10 10 6 0 10 -4 10 -10z m598 -47 c13 -1 22 2 22 10 0 6 6 3 12
-8 10 -17 12 -18 17 -2 6 15 7 15 19 -3 11 -19 10 -19 -46 -15 -48 3 -63 0
-94 -21 -21 -13 -38 -20 -38 -15 0 6 5 13 10 16 6 3 10 16 11 28 0 12 3 16 6
10 8 -21 25 -14 18 7 -3 11 -2 20 4 20 5 0 12 -8 14 -17 3 -13 5 -11 7 7 1 22
2 23 9 6 4 -11 17 -21 29 -23z m-3616 15 c-6 -7 -25 -22 -44 -32 -36 -20 -30
-12 16 22 32 25 44 28 28 10z m3468 -41 c-12 -26 -23 -47 -26 -47 -3 0 -12 7
-21 16 -12 11 -13 18 -4 27 8 8 11 8 11 -1 0 -23 17 -11 34 24 25 53 30 36 6
-19z m38 28 c-6 -14 -13 -23 -16 -21 -7 7 9 46 18 46 5 0 4 -11 -2 -25z m1722
-17 c0 -23 -3 -29 -11 -21 -6 6 -8 20 -4 32 9 30 15 26 15 -11z m-5409 -6
c-13 -2 -27 0 -32 5 -6 6 3 7 23 4 28 -4 29 -6 9 -9z m3019 -1 c0 -11 9 -26
21 -35 11 -8 27 -23 35 -34 12 -18 12 -23 -2 -36 -22 -23 -27 -21 -62 28 -41
56 -43 96 -5 96 7 0 13 -9 13 -19z m-2920 -16 c0 -7 -117 -65 -132 -65 -7 0
19 15 57 34 81 40 75 37 75 31z m3853 -26 l31 -31 -30 -16 c-38 -19 -37 -17
-29 -41 3 -12 25 -31 48 -43 36 -19 39 -23 20 -26 -13 -2 -37 7 -55 20 -18 13
-42 25 -53 26 -12 1 -41 13 -66 26 -42 21 -44 24 -28 34 10 7 39 12 64 12 50
0 64 15 45 49 -17 33 16 27 53 -10z m-273 -15 c0 -8 -8 -14 -18 -14 -25 0 -34
11 -21 26 13 15 39 7 39 -12z m210 16 c13 -9 13 -11 0 -20 -20 -13 -70 -13
-70 0 0 6 10 15 23 20 29 11 29 11 47 0z m920 -21 c19 -12 40 -29 47 -38 18
-23 16 -58 -4 -70 -15 -9 -12 -10 15 -11 49 0 133 -52 159 -99 26 -46 24 -58
-30 -143 -37 -57 -57 -78 -79 -82 -7 -1 -23 -8 -35 -14 -13 -7 -23 -10 -23 -6
0 4 -8 0 -17 -8 -10 -9 -28 -21 -41 -27 -22 -11 -23 -10 -20 16 2 17 -2 27 -8
26 -7 -1 -15 17 -18 40 -4 23 -17 55 -29 70 l-22 27 -120 -171 c-66 -94 -123
-172 -126 -175 -4 -2 -49 11 -102 29 l-96 32 136 185 c324 442 322 440 351
440 15 0 43 -10 62 -21z m-4894 -27 c-21 -2 -42 0 -47 5 -4 4 13 6 39 3 l47
-5 -39 -3z m3797 -92 l32 0 -33 -20 c-48 -30 -62 -26 -62 16 0 32 1 34 16 20
8 -9 30 -16 47 -16z m187 -16 c0 -8 -6 -14 -14 -14 -9 0 -12 7 -9 20 6 22 23
18 23 -6z m-41 -34 c5 -17 14 -30 18 -29 35 6 38 -1 33 -66 -4 -55 -10 -72
-40 -110 -42 -53 -52 -58 -77 -40 -17 13 -16 14 9 15 30 0 62 26 54 46 -3 7 2
18 10 24 21 19 17 55 -11 88 -14 17 -23 37 -19 45 3 9 -4 25 -15 36 l-21 21
24 0 c18 0 27 -8 35 -30z m1769 8 l35 -21 -52 -14 c-32 -8 -60 -23 -74 -39
-22 -26 -22 -26 -41 -6 -17 20 -17 21 11 35 15 8 39 27 52 41 14 14 27 26 29
26 3 0 20 -10 40 -22z m-145 -84 c11 -14 17 -28 14 -30 -11 -11 -47 17 -47 36
0 27 11 25 33 -6z m-1896 -18 c-2 -6 -13 -12 -25 -14 -16 -3 -19 1 -15 16 3
14 11 18 24 15 11 -3 18 -11 16 -17z m373 14 c0 -5 -7 -10 -15 -10 -8 0 -15 5
-15 10 0 6 7 10 15 10 8 0 15 -4 15 -10z m30 -4 c0 -3 -4 -16 -10 -30 -11 -31
-40 -35 -40 -5 0 11 5 17 10 14 6 -3 13 1 16 9 5 14 24 23 24 12z m1090 -25
c0 -12 -20 -25 -27 -18 -7 7 6 27 18 27 5 0 9 -4 9 -9z m390 -11 l25 -20 -35
0 c-19 0 -46 -3 -60 -7 -24 -6 -24 -6 5 20 36 32 34 31 65 7z m-1175 -47 c21
-12 27 -49 9 -64 -12 -10 -10 -15 13 -35 25 -21 26 -25 13 -49 -9 -17 -20 -24
-36 -22 -28 4 -56 26 -47 40 4 6 1 7 -6 3 -9 -6 -8 -12 4 -26 14 -15 14 -19 0
-30 -8 -7 -22 -9 -31 -6 -14 5 -14 9 -3 24 13 15 12 16 -3 3 -10 -7 -15 -17
-12 -22 12 -20 -36 -7 -64 16 -17 14 -35 25 -41 25 -6 0 -11 3 -11 6 0 11 93
119 101 117 5 -2 8 1 7 6 -2 5 8 23 21 41 l23 32 24 -25 c13 -14 31 -30 39
-34z m939 -35 c6 -5 2 -8 -11 -8 -12 0 -23 -6 -26 -12 -3 -9 -7 -7 -12 5 -5
12 -1 22 11 32 14 10 20 10 23 2 2 -7 9 -15 15 -19z m-74 -12 c0 -24 -17 -28
-23 -6 -3 13 0 20 9 20 8 0 14 -6 14 -14z m-18 -61 c-2 -14 -8 -25 -13 -25
-10 0 -12 34 -2 43 13 14 20 6 15 -18z m80 -2 c-6 -30 -32 -56 -45 -44 -5 6
37 66 49 71 1 0 -1 -12 -4 -27z m-89 -63 c31 0 33 -6 10 -32 -35 -39 -83 -8
-83 54 l0 21 23 -21 c13 -12 35 -22 50 -22z m1046 -45 c48 -39 96 -86 80 -78
-48 25 -100 73 -119 108 -15 29 -16 33 -3 15 10 -13 29 -33 42 -45z m-1207 20
c3 -14 1 -25 -3 -25 -5 0 -9 -8 -8 -17 0 -11 3 -13 6 -5 6 16 23 6 23 -14 0
-9 -5 -12 -12 -8 -7 4 -10 4 -6 -1 12 -13 -11 -45 -32 -45 -21 0 -34 32 -28
71 2 19 8 23 27 21 21 -3 23 -1 17 22 -3 14 -2 26 3 26 5 0 11 -11 13 -25z
m485 -31 c3 -9 -3 -24 -15 -36 l-20 -20 -12 22 c-15 28 -8 35 22 20 19 -10 21
-10 11 1 -7 7 -13 17 -13 21 0 14 20 8 27 -8z m-391 -14 c-3 -11 -9 -29 -12
-40 -4 -16 -1 -20 16 -20 20 0 20 -2 -10 -42 -66 -92 -68 -94 -82 -80 -10 10
-9 18 4 40 19 34 31 92 18 92 -20 0 -9 18 15 24 14 4 31 15 37 26 16 25 21 25
14 0z m50 -77 c-10 -10 -19 5 -10 18 6 11 8 11 12 0 2 -7 1 -15 -2 -18z
m-2336 8 c0 -5 -8 -12 -19 -16 -21 -6 -59 -45 -45 -46 15 0 95 -10 149 -18
l50 -7 -76 -32 c-42 -17 -90 -37 -105 -43 -29 -11 -29 -11 -6 -20 12 -4 49 -9
81 -10 33 -1 64 -5 69 -8 5 -3 -80 -66 -189 -140 -110 -74 -199 -138 -199
-143 0 -5 10 -6 23 -4 12 3 65 8 117 11 52 3 120 8 150 10 136 11 224 14 210
8 -8 -3 -60 -27 -115 -53 -56 -26 -111 -50 -123 -54 -36 -12 -25 -27 16 -21
20 2 73 7 117 10 l80 5 -70 -67 c-39 -38 -124 -118 -189 -180 -64 -61 -117
-115 -117 -119 1 -4 148 -6 329 -5 l327 2 -130 -65 c-71 -35 -125 -66 -120
-67 6 -2 -48 -6 -120 -9 l-130 -5 50 -23 c28 -13 61 -29 75 -34 23 -10 18 -13
-50 -29 -149 -35 -127 -42 -215 68 -43 54 -119 135 -169 181 -82 75 -227 184
-266 200 -14 6 -112 63 -212 125 -31 19 -48 36 -48 49 0 19 1 19 38 -3 20 -13
52 -33 71 -46 19 -12 37 -21 39 -18 3 2 -25 44 -61 93 -83 114 -83 115 -77
187 l5 60 40 -77 c22 -43 42 -78 46 -78 7 0 19 63 35 173 3 26 8 46 10 45 2
-2 33 -91 70 -198 36 -107 70 -198 73 -203 7 -7 12 11 76 303 65 293 71 301
124 160 18 -49 37 -90 41 -90 5 0 12 15 15 33 4 17 10 37 14 42 3 6 18 46 33
90 l27 80 -2 -88 c-1 -48 2 -87 6 -87 5 0 47 41 94 90 75 79 90 90 119 90 19
0 34 -4 34 -9z m2370 -1 c0 -5 -2 -10 -4 -10 -3 0 -8 5 -11 10 -3 6 -1 10 4
10 6 0 11 -4 11 -10z m-8143 -15 c0 -8 -4 -12 -9 -9 -5 3 -6 10 -3 15 9 13 12
11 12 -6z m63 -1 c0 -8 -19 -13 -24 -6 -3 5 1 9 9 9 8 0 15 -2 15 -3z m-25
-32 c-3 -3 0 -11 6 -19 6 -7 8 -13 4 -13 -5 0 0 -9 10 -20 10 -11 21 -18 25
-15 4 2 7 -2 7 -10 0 -13 -3 -13 -17 0 -11 10 -20 12 -28 5 -9 -7 -9 -7 -2 2
6 7 6 16 -1 25 -7 7 -8 13 -4 13 4 0 2 7 -5 15 -7 8 -9 15 -5 15 4 0 1 8 -6
18 -13 15 -12 16 4 3 9 -8 15 -16 12 -19z m36 15 c-6 -8 -7 -18 -3 -22 4 -5 1
-5 -6 -1 -10 6 -10 11 -1 22 6 8 14 14 16 14 3 0 0 -6 -6 -13z m8453 -72 c39
-26 32 -52 -25 -104 -59 -53 -89 -106 -89 -155 0 -30 4 -37 28 -43 28 -8 28
-9 15 -41 l-13 -32 -78 41 c-42 23 -81 46 -86 50 -5 5 20 79 59 171 92 223 79
206 125 164 21 -19 50 -42 64 -51z m-8678 51 c-1 -8 -7 -20 -14 -28 -6 -8 -10
-18 -7 -21 3 -4 2 -5 -2 -2 -12 9 -12 34 0 32 7 -1 11 8 11 20 -1 13 2 20 6
18 5 -3 7 -11 6 -19z m132 -3 c-6 -8 -13 -22 -14 -30 -2 -8 -5 -18 -8 -21 -12
-11 0 36 12 50 6 8 8 19 4 23 -4 5 -1 5 6 1 10 -6 11 -11 0 -23z m-212 -7 c0
-14 -3 -23 -7 -20 -6 3 -6 22 0 42 3 10 7 -2 7 -22z m150 -2 c0 -20 -11 -25
-11 -6 0 4 -3 12 -7 18 -4 6 -1 11 5 11 7 0 13 -11 13 -23z m44 21 c0 -2 -6
-8 -13 -14 -10 -8 -14 -7 -14 2 0 8 6 14 14 14 7 0 13 -1 13 -2z m-104 -43
c-17 -16 -18 -16 -5 5 7 12 15 20 18 17 3 -2 -3 -12 -13 -22z m143 21 c-3 -21
2 -26 12 -13 7 10 9 11 7 2 -2 -8 -8 -14 -13 -14 -6 0 -16 -5 -24 -11 -12 -10
-13 -9 -6 3 6 8 10 18 11 23 3 15 4 17 9 17 3 0 4 -3 4 -7z m-259 -9 c0 -8
-19 -13 -24 -6 -3 5 1 9 9 9 8 0 15 -2 15 -3z m334 -10 c3 -8 2 -12 -4 -9 -6
3 -10 10 -10 16 0 14 7 11 14 -7z m-178 -6 c4 -7 4 -10 -1 -6 -4 4 -15 2 -24
-5 -14 -11 -14 -10 -2 6 16 20 18 21 27 5z m224 -4 c0 -8 -19 -13 -24 -6 -3 5
1 9 9 9 8 0 15 -2 15 -3z m9301 -17 c-1 -12 -15 -9 -19 4 -3 6 1 10 8 8 6 -3
11 -8 11 -12z m-9566 -17 c3 6 12 7 18 3 7 -4 16 -8 21 -8 5 0 10 -7 11 -16 2
-9 -3 -16 -11 -16 -7 0 -12 5 -11 11 1 5 -9 11 -23 11 -27 1 -53 -13 -45 -24
2 -4 -3 -8 -11 -8 -10 0 -11 4 -5 10 7 7 7 16 -2 26 -11 14 -10 14 6 2 16 -13
22 -8 18 13 -1 5 4 4 13 -3 10 -8 16 -9 21 -1z m114 -19 c7 -13 6 -18 -4 -18
-8 0 -11 7 -7 16 4 13 2 13 -15 -2 -16 -14 -20 -14 -20 -3 0 8 5 14 11 13 6
-1 10 4 8 11 -3 18 15 6 27 -17z m8021 15 c0 -3 -4 -8 -10 -11 -5 -3 -10 -1
-10 4 0 6 5 11 10 11 6 0 10 -2 10 -4z m1140 -3 c0 -16 -16 -30 -32 -30 -14 0
-15 3 -6 14 9 11 7 12 -7 7 -13 -5 -16 -4 -11 4 8 13 56 17 56 5z m370 -3 c0
-5 -5 -10 -11 -10 -5 0 -7 5 -4 10 3 6 8 10 11 10 2 0 4 -4 4 -10z m-9479 -33
c-10 -9 -11 -8 -5 6 3 10 9 15 12 12 3 -3 0 -11 -7 -18z m-172 6 c-4 -22 2
-33 14 -27 6 4 3 -2 -7 -14 -12 -14 -14 -22 -7 -22 7 0 9 -5 5 -12 -4 -7 -3
-8 5 -4 6 4 9 11 6 16 -3 5 -1 12 5 15 6 4 9 1 8 -7 -2 -8 5 -12 17 -10 15 2
21 -3 21 -17 0 -11 -5 -19 -11 -18 -5 1 -9 -7 -8 -18 1 -11 0 -14 -3 -7 -3 6
-11 9 -17 5 -24 -15 -33 -10 -35 20 -4 43 -12 48 -12 7 0 -36 -12 -35 -14 1
-1 13 -8 23 -19 25 -10 1 -14 -2 -11 -8 4 -6 3 -8 -2 -5 -6 3 -10 -6 -11 -21
-2 -25 -1 -25 7 -6 8 21 30 42 30 29 0 -11 -32 -55 -41 -55 -5 0 -9 10 -10 23
0 21 -1 21 -9 2 -8 -18 -9 -17 -9 8 -1 16 3 26 8 22 5 -3 17 5 25 17 11 15 16
18 16 8 0 -13 2 -13 10 0 6 10 10 11 10 3 0 -7 5 -13 11 -13 5 0 7 5 4 10 -4
6 -3 10 2 9 19 -3 23 2 14 20 -6 10 -7 21 -4 25 8 8 13 8 12 -1z m4395 -46
c13 -35 3 -42 -34 -27 -35 14 -36 17 -13 42 21 23 35 19 47 -15z m-4309 -7
c-3 -4 2 -10 10 -14 8 -3 19 2 24 12 8 14 10 13 16 -10 4 -15 5 -33 2 -40 -3
-7 -6 1 -6 17 -1 21 -4 26 -10 16 -5 -7 -14 -10 -20 -7 -7 5 -11 -1 -11 -13 0
-23 15 -28 23 -8 4 9 6 9 6 0 1 -10 -37 -40 -40 -31 -5 21 -3 95 3 92 5 -3 6
-9 3 -14z m9158 -49 c15 -2 6 -21 -10 -21 -13 0 -14 -3 -5 -12 20 -20 14 -30
-15 -26 -23 2 -29 8 -31 35 -3 33 -2 34 61 24z m-9291 -33 c-8 -8 -9 -4 -5 13
4 13 8 18 11 10 2 -7 -1 -18 -6 -23z m8156 -1 c8 -10 6 -16 -9 -25 -11 -7 -24
-10 -29 -7 -14 9 -12 32 3 38 20 8 24 8 35 -6z m946 -2 c20 -8 36 -18 36 -21
0 -22 -123 -374 -131 -374 -7 0 -141 81 -157 95 -2 2 4 27 13 57 17 52 18 53
74 71 31 9 61 17 67 17 20 0 64 41 64 60 0 9 -7 23 -15 30 -19 16 -20 80 -1
80 7 0 30 -7 50 -15z m771 -15 c0 -8 -10 -16 -22 -18 -18 -3 -23 2 -23 18 0
16 5 21 23 18 12 -2 22 -10 22 -18z m-8346 -61 c1 8 9 5 22 -10 11 -13 18 -18
14 -11 -4 7 0 12 10 12 10 0 13 -5 9 -12 -5 -9 -2 -9 9 1 12 9 17 10 17 2 0
-7 5 -9 10 -6 6 3 10 -1 10 -9 0 -10 -6 -13 -15 -10 -9 4 -15 0 -15 -7 0 -11
-3 -11 -11 1 -9 13 -10 12 -5 -2 3 -10 1 -20 -4 -23 -6 -4 -10 -1 -10 5 0 6
-5 8 -12 4 -8 -5 -7 0 2 11 14 17 13 18 -4 12 -14 -6 -17 -4 -12 10 5 15 4 15
-9 -1 -8 -11 -15 -14 -15 -8 0 7 -4 11 -9 10 -11 -4 -12 1 -4 31 6 23 7 23 14
5 4 -10 8 -13 8 -5z m7528 -5 c3 -9 2 -24 -3 -32 -12 -19 -112 -53 -120 -40
-9 14 71 88 95 88 12 0 24 -7 28 -16z m652 -62 c-10 -12 -7 -11 10 3 l24 20
-8 -25 c-10 -35 -97 -123 -106 -108 -6 9 -11 8 -23 -1 -44 -36 6 42 68 107 38
40 65 43 35 4z m-8050 10 c1 20 39 17 53 -4 4 -7 8 -8 8 -3 0 6 4 3 10 -5 5
-9 5 -19 0 -25 -7 -8 -5 -12 5 -12 7 0 13 5 12 11 -1 5 4 10 11 11 7 0 17 7
22 15 7 10 10 11 11 3 1 -7 2 -17 3 -23 2 -18 19 -16 22 3 1 9 -2 15 -7 11 -5
-3 -9 -1 -9 5 0 5 9 9 19 8 11 0 17 -6 13 -12 -3 -5 1 -4 10 3 14 11 20 9 38
-10 19 -21 20 -21 14 -3 -4 11 -4 17 0 13 4 -3 9 -18 10 -32 3 -25 2 -26 -14
-11 -12 11 -20 13 -25 5 -4 -6 -1 -9 7 -8 7 2 12 -2 11 -8 -2 -10 10 -14 49
-15 9 0 19 -7 22 -15 4 -10 2 -13 -7 -7 -20 12 -35 12 -47 -2 -9 -11 -7 -12 8
-8 11 2 23 0 26 -5 4 -6 -3 -8 -16 -4 -14 3 -19 1 -14 -6 5 -8 1 -10 -10 -5
-10 4 -15 2 -11 -4 3 -5 0 -10 -8 -10 -8 0 -12 4 -9 8 2 4 0 11 -6 14 -6 4 -9
3 -8 -2 1 -4 -5 -20 -15 -34 -16 -24 -23 -26 -84 -25 -46 1 -68 6 -71 15 -3 9
0 11 8 6 9 -6 11 -4 5 4 -5 9 -10 10 -18 2 -7 -7 -15 -7 -26 2 -12 10 -13 9
-6 -2 6 -11 3 -11 -14 2 -13 8 -30 13 -37 10 -8 -3 -14 1 -14 8 0 7 3 9 7 6 3
-4 15 1 26 10 20 17 20 17 14 -2 -7 -20 -7 -20 8 -1 15 20 15 20 16 0 0 -18 1
-18 9 1 6 13 9 15 9 5 1 -13 2 -13 11 0 9 13 10 13 10 0 0 -12 2 -12 9 -2 4 8
12 14 16 14 4 0 12 -6 17 -14 8 -10 9 -9 4 4 -3 10 -1 20 4 23 6 4 11 -2 11
-12 1 -17 2 -17 6 0 2 9 8 15 13 12 5 -3 6 -13 3 -23 -5 -14 -2 -13 11 3 13
14 16 15 13 4 -3 -9 1 -16 8 -16 8 0 11 7 7 15 -4 11 -1 13 7 7 10 -6 11 -3 2
13 -8 15 -7 23 3 31 7 6 16 8 20 4 4 -4 4 1 0 10 -6 16 -8 16 -21 -3 -15 -21
-16 -21 -36 -3 -15 12 -18 13 -9 2 12 -16 7 -29 -10 -29 -5 0 -7 4 -4 8 3 5
-7 8 -22 6 -15 -1 -27 -3 -27 -4 0 -1 -8 -3 -18 -5 -11 -2 -16 1 -14 8 3 7 10
11 16 10 6 -2 11 2 11 7 0 6 -6 10 -12 9 -24 -3 -39 1 -34 9 2 4 -6 8 -18 8
-23 0 -29 -17 -12 -33 4 -4 6 -3 4 4 -1 6 2 11 7 11 6 0 9 -4 8 -9 -2 -4 4 -6
12 -3 11 4 13 2 9 -9 -3 -8 -13 -14 -22 -12 -9 1 -23 -3 -31 -9 -12 -9 -13 -8
-8 7 5 12 3 16 -5 11 -8 -5 -9 -2 -5 9 9 25 0 21 -14 -5 -6 -13 -8 -20 -4 -16
13 13 35 -25 23 -40 -9 -10 -14 -10 -26 0 -13 10 -14 10 -8 1 4 -8 2 -13 -4
-13 -6 0 -8 -5 -4 -12 5 -9 2 -9 -9 1 -18 15 -23 26 -7 16 6 -3 10 -1 10 4 0
10 -24 16 -33 9 -2 -2 -18 10 -36 25 -32 26 -35 27 -52 11 -11 -10 -19 -12
-19 -6 0 7 -3 11 -7 11 -19 -3 -33 2 -33 12 0 6 5 7 13 2 17 -11 36 -12 42 -3
2 4 -5 7 -17 6 -12 0 -23 4 -25 11 -3 8 4 10 21 7 14 -2 26 0 26 5 0 5 -12 8
-27 7 -16 -2 -39 3 -52 10 -23 12 -22 13 20 10 52 -2 72 -13 65 -32 -4 -11 1
-13 19 -10 19 4 29 -2 40 -22 13 -23 15 -23 10 -4 -6 21 -4 22 32 18 21 -3 30
-2 21 0 -10 3 -18 11 -18 17 0 9 -2 9 -8 0 -6 -9 -11 -6 -21 8 -10 17 -10 20
1 13 7 -5 20 -9 28 -9 8 0 22 -4 30 -9 8 -5 12 -5 7 -1 -4 5 0 17 9 27 13 14
20 15 31 6 8 -6 13 -7 12 -2 -4 21 3 27 11 9 7 -16 9 -17 9 -3z m-329 -2 c0
-5 -5 -10 -11 -10 -5 0 -7 5 -4 10 3 6 8 10 11 10 2 0 4 -4 4 -10z m646 -36
c-3 -7 -1 -16 5 -19 12 -8 2 -25 -14 -25 -9 0 -9 2 0 8 9 6 6 11 -8 21 -12 7
-18 8 -15 3 3 -6 0 -12 -7 -15 -10 -4 -13 2 -9 19 5 27 12 30 31 12 10 -11 11
-9 5 6 -5 14 -4 17 5 12 7 -5 10 -14 7 -22z m-625 7 c7 11 9 11 9 1 0 -7 5
-10 10 -7 11 7 12 3 4 -18 -5 -14 -8 -13 -25 1 -10 9 -19 21 -18 27 0 5 3 4 6
-4 5 -11 7 -11 14 0z m673 -17 c3 -8 2 -12 -4 -9 -6 3 -10 10 -10 16 0 14 7
11 14 -7z m-267 -39 c4 -4 3 -5 -3 -2 -7 4 -17 1 -22 -6 -13 -15 -108 -17
-104 -2 1 6 20 10 41 10 22 0 42 3 46 7 8 8 32 4 42 -7z m53 -8 c0 -7 -4 -6
-10 3 -8 12 -10 12 -10 1 0 -8 -3 -12 -6 -8 -9 9 6 28 17 22 5 -4 9 -12 9 -18z
m7755 -49 c-7 -23 -7 -23 9 -3 8 11 16 16 16 11 0 -5 7 -3 15 4 8 7 15 8 15 2
0 -14 -25 -33 -33 -25 -6 6 -11 -11 -9 -29 2 -8 -27 -32 -33 -27 -7 8 8 89 17
89 5 0 6 -10 3 -22z m-438 -39 c29 -18 38 -20 57 -10 25 14 63 3 86 -24 8 -9
24 -21 37 -26 l22 -8 -30 -32 c-21 -22 -29 -40 -27 -58 5 -41 35 -38 73 6 33
37 34 38 62 23 24 -14 30 -25 40 -85 6 -39 14 -80 18 -92 9 -27 -1 -29 -27 -6
-17 15 -50 19 -99 11 -9 -2 -74 39 -143 90 -118 87 -126 95 -125 125 0 18 -3
49 -6 70 -7 31 -5 37 10 37 10 0 33 -10 52 -21z m242 -98 c-34 -45 -65 -81
-69 -81 -5 0 -11 7 -14 16 -3 9 -2 12 5 8 6 -4 9 2 7 14 -2 14 16 39 62 84 36
35 66 58 68 52 2 -7 -25 -48 -59 -93z m-8456 52 c-3 -7 -6 -13 -8 -13 -2 0 -5
6 -8 13 -3 8 1 14 8 14 7 0 11 -6 8 -14z m3671 -121 c14 -34 23 -62 21 -62 -2
0 -24 17 -48 38 l-44 39 20 27 c10 15 21 25 23 23 3 -2 15 -32 28 -65z m-2490
-5 c3 3 14 -1 23 -10 16 -14 90 -34 150 -41 13 -1 26 -6 30 -9 3 -4 15 -7 25
-7 10 0 18 -5 18 -11 0 -5 5 -7 10 -4 6 3 15 3 22 -1 16 -10 88 -5 112 8 14 8
17 7 11 -3 -6 -8 -4 -10 6 -3 18 11 46 6 76 -13 25 -17 81 -21 128 -10 17 4
26 4 20 0 -15 -12 -18 -36 -4 -27 8 5 10 2 7 -8 -5 -11 0 -14 18 -12 13 1 26
-2 30 -7 3 -5 9 -7 14 -4 5 3 12 0 16 -6 5 -8 3 -9 -6 -4 -8 5 -11 4 -6 -3 4
-6 12 -9 20 -6 15 6 40 -42 25 -51 -5 -4 -6 -11 -3 -17 4 -6 2 -8 -4 -4 -6 3
-22 -5 -37 -18 -14 -13 -39 -29 -55 -36 -17 -7 -30 -19 -30 -26 0 -18 -42 -28
-83 -20 -17 3 -45 8 -62 11 -16 3 -50 9 -75 13 -32 6 -51 4 -66 -5 -11 -7 -35
-15 -52 -17 -18 -2 -38 -9 -46 -15 -8 -6 -38 -15 -67 -18 -43 -5 -51 -4 -47 8
3 8 0 29 -7 46 -12 29 -20 33 -98 49 -26 6 -97 55 -98 68 -2 34 -11 62 -26 79
-10 10 -18 28 -19 40 -1 12 -5 32 -8 45 -3 14 0 22 8 22 7 0 30 9 52 19 25 13
44 16 55 10 9 -4 19 -5 23 -2z m7530 -95 c21 -32 59 -52 96 -52 34 0 74 -36
64 -59 -4 -9 -8 -28 -8 -42 -1 -14 -7 -33 -15 -42 -7 -9 -11 -24 -7 -32 4 -12
0 -14 -22 -8 -15 3 -39 15 -54 26 -20 15 -35 18 -65 13 -100 -18 -134 0 -132
68 1 23 -1 57 -4 76 -13 72 -13 75 4 72 9 -1 31 4 50 12 39 17 66 7 93 -32z
m-9355 -98 c4 3 8 -1 8 -9 0 -11 -4 -12 -14 -4 -7 6 -13 17 -12 23 0 7 2 6 6
-2 2 -6 8 -10 12 -8z m-48 -14 c6 0 7 5 4 10 -9 14 1 12 13 -3 9 -10 3 -13
-24 -14 -18 0 -34 4 -34 9 0 5 5 6 10 3 6 -3 10 0 11 7 0 10 2 10 6 1 2 -7 9
-13 14 -13z m92 -139 c4 -1 7 -5 7 -10 0 -12 -57 -19 -72 -9 -9 6 -7 8 7 6 11
-2 19 2 18 9 -1 6 5 10 15 8 9 -2 20 -4 25 -4z m64 -14 c2 -3 -3 -7 -12 -11
-11 -4 -14 -2 -9 6 4 7 3 8 -4 4 -9 -5 -9 -13 -1 -29 17 -32 23 -35 16 -9 -3
12 -1 22 4 22 5 0 9 -7 9 -15 0 -8 5 -14 11 -12 14 3 21 -31 8 -39 -5 -3 -8 0
-7 8 4 16 -50 19 -72 4 -13 -10 -13 -9 -1 6 7 10 18 15 24 11 6 -3 7 -1 3 6
-4 7 -16 11 -25 9 -10 -2 -17 2 -17 7 1 6 7 9 14 9 11 -2 16 9 13 28 -1 7 38
2 46 -5z m4285 -19 c4 -12 4 -62 -1 -153 -3 -59 -12 -60 -95 -13 -41 23 -76
45 -76 48 0 3 28 6 63 8 34 2 65 6 69 10 4 4 -20 25 -52 47 -33 22 -60 43 -60
47 0 4 28 9 63 11 34 2 67 4 73 5 7 1 14 -4 16 -10z m5050 -75 c30 -36 30 -47
0 -19 -18 17 -32 31 -32 33 0 9 19 1 32 -14z m-9725 -98 c0 -8 -4 -12 -9 -9
-5 3 -6 10 -3 15 9 13 12 11 12 -6z m4628 -177 c-14 -52 -87 -187 -130 -241
-26 -32 -67 -71 -92 -87 -40 -26 -53 -29 -112 -26 -37 2 -85 12 -110 23 l-44
19 114 48 c128 54 147 66 104 66 -53 1 -250 12 -253 15 -2 1 32 15 75 30 43
16 82 31 86 35 4 4 -14 21 -40 38 -26 18 -42 32 -34 32 8 0 75 -12 149 -26 73
-14 137 -23 140 -20 3 3 3 7 1 9 -2 2 -28 21 -57 42 l-53 40 108 11 c164 17
155 17 148 -8z m96 -93 c24 -22 65 -56 92 -74 26 -19 47 -37 47 -39 0 -3 -47
-92 -105 -198 -97 -177 -108 -192 -136 -196 l-30 -5 6 51 c4 28 13 87 20 131
8 44 12 81 10 83 -2 2 -43 -34 -92 -80 -48 -46 -113 -107 -143 -135 l-55 -51
-17 23 c-22 29 -22 38 -3 75 17 33 11 38 -17 13 -17 -15 -18 -15 -18 12 0 43
21 92 44 103 12 6 37 16 56 23 78 29 185 164 240 301 l23 58 17 -28 c9 -15 37
-45 61 -67z m-3561 45 c0 -5 -5 -10 -11 -10 -5 0 -7 5 -4 10 3 6 8 10 11 10 2
0 4 -4 4 -10z m-154 -37 c-3 -4 -6 -1 -6 6 0 7 -4 9 -10 6 -6 -4 -7 1 -3 11 6
15 7 15 15 -1 6 -9 7 -19 4 -22z m99 7 c2 -12 1 -20 -2 -16 -4 4 -8 16 -10 28
-4 28 6 18 12 -12z m24 16 c9 -11 9 -16 -1 -22 -7 -4 -10 -4 -6 1 4 4 3 14 -3
22 -6 7 -9 13 -6 13 2 0 10 -6 16 -14z m160 -9 c13 3 12 2 -2 -7 -9 -6 -15
-15 -12 -20 3 -5 1 -11 -4 -14 -5 -4 -12 -2 -15 3 -4 5 -2 12 4 16 6 4 8 11 4
16 -4 6 -14 4 -28 -5 -19 -12 -23 -12 -23 -1 0 8 3 12 7 10 3 -2 12 0 20 5 9
5 19 5 24 0 4 -4 16 -6 25 -3z m-1185 -5 c3 -5 -1 -9 -9 -9 -8 0 -12 4 -9 9 3
4 7 8 9 8 2 0 6 -4 9 -8z m60 -4 c-3 -5 -9 -6 -14 -3 -4 3 -13 -2 -20 -10 -10
-12 -9 -15 7 -15 10 0 25 6 32 13 10 10 12 9 9 -2 -2 -7 3 -16 11 -19 8 -2 11
0 8 5 -3 5 0 10 8 10 8 0 13 -3 11 -6 -2 -3 2 -12 10 -19 12 -11 14 -9 15 8 2
32 4 38 11 45 4 4 5 -5 2 -20 -3 -15 -1 -24 5 -21 5 3 8 -1 7 -11 -3 -18 -33
-27 -42 -12 -3 5 -11 6 -17 2 -20 -13 -36 -12 -47 2 -13 16 -43 8 -33 -9 4 -7
1 -7 -9 1 -8 7 -17 11 -19 8 -3 -2 -6 5 -6 17 -2 20 -1 20 13 2 14 -16 15 -17
10 -2 -3 10 -1 20 5 23 5 4 7 10 5 14 -3 4 6 7 19 7 13 0 21 -4 19 -8z m127
-1 c-11 -11 4 -37 21 -37 7 0 7 5 0 13 -8 9 -8 17 0 27 8 13 9 12 5 -2 -3 -9
1 -22 9 -29 13 -10 14 -8 10 16 -3 15 -2 24 2 20 4 -3 8 -11 8 -16 1 -5 2 -13
3 -18 0 -6 10 -8 22 -6 15 3 19 0 15 -10 -3 -8 0 -15 6 -15 6 0 8 -3 5 -6 -4
-4 -13 -2 -20 4 -8 7 -17 9 -20 5 -4 -3 -7 0 -8 8 0 8 -4 6 -9 -6 -8 -18 -9
-18 -9 -2 -1 10 -6 15 -11 12 -6 -4 -7 -12 -3 -18 4 -8 1 -7 -9 1 -13 10 -17
10 -22 0 -3 -7 -5 -4 -5 7 1 11 0 22 -1 25 -8 22 -5 37 6 37 10 0 11 -4 5 -10z
m136 -2 c0 -6 -6 -12 -12 -12 -6 0 -12 6 -12 12 0 6 6 12 12 12 6 0 12 -6 12
-12z m35 6 c8 11 9 11 6 1 -4 -16 -22 -18 -24 -2 -2 7 -1 6 3 -1 4 -8 8 -7 15
2z m48 4 c0 -2 -6 -8 -13 -14 -10 -8 -14 -7 -14 2 0 8 6 14 14 14 7 0 13 -1
13 -2z m284 -10 c5 0 10 -8 12 -17 3 -23 2 -23 -27 9 -13 14 -17 22 -9 17 8
-5 19 -9 24 -9z m54 6 c2 -1 0 -7 -5 -13 -11 -19 -11 -51 1 -68 9 -13 8 -13
-5 -3 -9 7 -15 25 -14 40 1 16 -2 33 -7 40 -8 10 0 11 30 4z m42 4 c0 -1 -10
-10 -22 -21 -14 -12 -18 -13 -10 -3 6 9 10 18 7 21 -3 2 2 5 10 5 8 0 15 -1
15 -2z m17 -14 c0 -11 -4 -18 -8 -15 -4 2 -12 -4 -18 -13 -6 -10 -11 -14 -11
-10 0 7 32 56 37 57 1 0 1 -9 0 -19z m-180 -13 c2 -17 0 -19 -7 -8 -5 8 -6 18
-4 22 8 12 10 10 11 -14z m891 -3 c4 -4 -2 -5 -13 -3 -11 1 -20 -2 -20 -9 0
-6 -3 -14 -7 -17 -5 -3 -6 -3 -3 1 3 3 -2 14 -10 23 -13 15 -12 16 16 14 17
-1 33 -5 37 -9z m117 -3 c0 -9 -5 -24 -10 -32 -13 -21 -15 -39 -4 -46 5 -3 9
-11 9 -17 -1 -20 -24 26 -26 50 0 12 4 21 10 20 5 -1 11 5 12 13 3 33 12 45 9
12z m253 3 c3 -3 -7 -5 -21 -5 -15 0 -27 4 -27 9 0 10 38 7 48 -4z m4189 -21
c49 -20 92 -39 97 -42 5 -3 -31 -13 -79 -23 -49 -10 -90 -17 -91 -16 -8 9 -29
117 -23 117 5 0 48 -16 96 -36z m-5162 17 c3 -5 2 -12 -3 -15 -5 -3 -9 1 -9 9
0 17 3 19 12 6z m842 3 c-3 -3 -12 -4 -19 -1 -8 3 -5 6 6 6 11 1 17 -2 13 -5z
m170 0 c-3 -3 -12 -4 -19 -1 -8 3 -5 6 6 6 11 1 17 -2 13 -5z m4039 -84 c-15
-35 -17 -35 -112 -50 -46 -6 -84 -16 -84 -20 0 -5 20 -16 45 -26 37 -14 43
-19 33 -31 -15 -18 -69 -47 -85 -46 -7 0 -39 1 -71 2 l-59 1 -36 93 c-20 50
-39 99 -42 108 -5 12 4 21 35 33 57 23 65 21 163 -29 48 -25 96 -43 105 -41
53 12 75 32 88 79 1 4 2 10 4 15 1 4 7 -9 14 -28 10 -26 10 -41 2 -60z m-5995
57 c-10 -9 -11 -8 -5 6 3 10 9 15 12 12 3 -3 0 -11 -7 -18z m1256 8 c0 -8 -4
-12 -9 -9 -5 3 -6 10 -3 15 9 13 12 11 12 -6z m34 -2 c8 -9 9 -14 2 -10 -6 4
-13 1 -16 -5 -3 -7 -4 -3 -4 10 1 26 1 26 18 5z m194 8 c3 -5 2 -12 -3 -15 -5
-3 -9 1 -9 9 0 17 3 19 12 6z m254 2 c14 10 14 10 4 -3 -6 -8 -12 -19 -13 -25
-1 -5 -4 -12 -7 -15 -4 -3 -3 0 1 7 3 6 2 14 -3 17 -14 9 -21 -20 -8 -35 10
-11 9 -11 -5 0 -13 10 -15 18 -8 31 5 9 8 20 6 22 -1 3 2 2 7 -3 6 -5 17 -3
26 4z m-789 -40 c0 -2 -8 1 -18 6 -13 7 -23 6 -32 -2 -12 -10 -12 -9 -2 4 6 9
8 19 4 24 -4 4 5 0 21 -10 15 -9 27 -19 27 -22z m822 7 c3 -17 2 -33 -2 -35
-4 -2 -7 1 -7 8 0 7 -2 17 -3 22 -3 14 -1 35 4 35 2 0 6 -14 8 -30z m-721 -3
c-10 -9 -11 -8 -5 6 3 10 9 15 12 12 3 -3 0 -11 -7 -18z m566 8 c0 -8 -4 -12
-9 -9 -5 3 -6 10 -3 15 9 13 12 11 12 -6z m-187 0 c0 -2 -6 -8 -13 -14 -10 -8
-14 -7 -14 2 0 8 6 14 14 14 7 0 13 -1 13 -2z m2154 -40 c-15 -20 -29 -34 -31
-31 -5 4 46 66 54 66 2 0 -8 -16 -23 -35z m-1838 8 c-2 -10 6 -26 17 -35 16
-14 19 -26 4 -15 -2 1 -11 -4 -20 -12 -20 -16 -23 -1 -4 18 8 10 8 12 0 7 -6
-3 -14 -2 -18 4 -4 6 -12 7 -18 4 -7 -4 -8 -3 -4 2 5 5 14 9 20 9 7 0 13 6 13
13 2 18 4 22 8 22 2 0 3 -8 2 -17z m554 7 c0 -5 -15 -9 -32 -9 l-33 1 30 8
c17 4 31 8 33 9 1 0 2 -3 2 -9z m50 0 c0 -5 -5 -10 -11 -10 -5 0 -7 5 -4 10 3
6 8 10 11 10 2 0 4 -4 4 -10z m-413 -15 c0 -8 -4 -12 -9 -9 -5 3 -6 10 -3 15
9 13 12 11 12 -6z m283 5 c-13 -8 -8 -14 11 -12 3 1 6 -6 6 -14 0 -10 -4 -11
-11 -4 -6 6 -16 4 -30 -8 -21 -17 -21 -17 -2 6 11 12 16 22 12 22 -4 0 -4 5
-1 10 3 6 12 10 18 10 7 0 6 -4 -3 -10z m157 -5 c0 -8 -4 -12 -9 -9 -5 3 -6
10 -3 15 9 13 12 11 12 -6z m68 -8 c1 -7 7 -11 14 -9 7 1 9 -2 6 -9 -9 -13
-28 3 -31 27 -1 9 1 13 4 9 4 -4 7 -12 7 -18z m-484 -10 c-7 -7 -7 -15 -1 -22
7 -9 5 -17 -7 -26 -16 -13 -17 -12 -5 3 9 11 10 18 2 23 -8 5 -8 11 -1 19 6 7
7 17 3 21 -4 5 -1 5 6 0 10 -5 11 -10 3 -18z m164 14 c-3 -5 -1 -13 5 -16 8
-5 8 -11 1 -19 -6 -7 -7 -17 -3 -21 4 -5 1 -5 -6 -1 -10 6 -10 11 -2 21 8 9 8
15 0 20 -10 6 -5 25 6 25 3 0 3 -4 -1 -9z m-118 -18 c0 -9 -4 -10 -14 -2 -7 6
-13 12 -13 14 0 1 6 2 13 2 8 0 14 -6 14 -14z m56 10 c4 7 6 8 6 1 1 -6 -7
-18 -16 -25 -14 -12 -16 -12 -8 0 6 11 4 13 -7 9 -8 -4 -15 0 -15 7 0 10 5 11
18 5 12 -7 19 -6 22 3z m103 -19 c0 -20 -11 -25 -11 -6 0 4 -3 12 -7 18 -4 6
-1 11 5 11 7 0 13 -11 13 -23z m146 7 c11 -10 8 -11 -12 -3 -14 5 -31 7 -37 5
-7 -3 -13 0 -13 5 0 13 48 8 62 -7z m47 5 c9 -11 9 -16 -1 -22 -7 -4 -10 -4
-6 1 4 4 3 14 -3 22 -6 7 -9 13 -6 13 2 0 10 -6 16 -14z m61 8 c0 -8 -19 -13
-24 -6 -3 5 1 9 9 9 8 0 15 -2 15 -3z m81 -21 c13 -16 12 -17 -3 -4 -10 7 -18
15 -18 17 0 8 8 3 21 -13z m173 -1 c2 -4 -7 -9 -22 -10 -21 -1 -24 0 -12 8 18
12 27 12 34 2z m109 -5 c4 3 7 4 7 1 0 -3 -8 -12 -17 -19 -10 -7 -15 -9 -11
-5 4 5 2 16 -5 25 -10 14 -10 14 4 4 9 -7 19 -10 22 -6z m307 -3 c0 -2 -9 -4
-20 -4 -11 0 -20 4 -20 9 0 5 9 7 20 4 11 -3 20 -7 20 -9z m-1013 -9 c0 -8 -4
-12 -9 -9 -5 3 -6 10 -3 15 9 13 12 11 12 -6z m530 9 c-3 -3 -12 -4 -19 -1 -8
3 -5 6 6 6 11 1 17 -2 13 -5z m244 -7 c-6 -8 -8 -17 -4 -21 11 -10 12 -37 2
-30 -5 3 -7 9 -4 14 3 5 1 12 -5 15 -10 6 4 35 17 35 3 0 0 -6 -6 -13z m187 1
c-2 -7 3 -12 10 -10 8 1 11 -2 7 -8 -5 -8 -11 -8 -21 1 -7 6 -11 15 -8 20 8
13 14 11 12 -3z m2438 -10 c-3 -13 -6 -42 -6 -65 l0 -43 -47 0 -48 -1 41 -37
c40 -37 41 -38 36 -95 -4 -56 -6 -60 -38 -73 -33 -14 -34 -13 -134 52 -56 36
-103 65 -105 62 -2 -2 18 -39 45 -82 27 -44 47 -83 44 -87 -9 -15 -281 -96
-290 -87 -3 3 -54 393 -54 413 0 4 6 3 13 -3 6 -5 43 -26 81 -46 78 -42 163
-56 217 -37 46 16 169 91 169 103 0 5 5 6 10 3 6 -3 13 1 16 9 3 9 10 13 15
10 5 -3 12 2 15 10 9 25 27 19 20 -6z m-3446 6 c0 -8 -19 -13 -24 -6 -3 5 1 9
9 9 8 0 15 -2 15 -3z m294 -10 c3 -8 2 -12 -4 -9 -6 3 -10 10 -10 16 0 14 7
11 14 -7z m623 1 c0 -8 -4 -12 -9 -9 -5 3 -6 10 -3 15 9 13 12 11 12 -6z m585
-7 c-7 -7 -12 -8 -12 -2 0 14 12 26 19 19 2 -3 -1 -11 -7 -17z m-962 8 c0 -2
-8 -10 -17 -17 -16 -13 -17 -12 -4 4 13 16 21 21 21 13z m110 -11 c-5 -7 -9
-14 -7 -16 1 -2 0 -3 -2 -1 -11 7 -7 29 5 29 9 0 11 -4 4 -12z m47 -2 c0 -9
-4 -10 -14 -2 -7 6 -13 12 -13 14 0 1 6 2 13 2 8 0 14 -6 14 -14z m83 -3 c-5
-10 -7 -20 -4 -22 2 -3 -2 -11 -10 -17 -10 -8 -16 -9 -21 -1 -4 6 -1 9 5 8 7
-2 14 7 16 20 3 16 0 21 -8 16 -6 -4 -8 -3 -5 3 3 5 13 10 21 10 11 0 12 -5 6
-17z m107 3 c0 -9 -4 -10 -10 -4 -7 7 -16 7 -26 -2 -14 -10 -14 -10 -4 4 15
19 40 21 40 2z m-302 -2 c3 -5 2 -12 -3 -15 -5 -3 -9 1 -9 9 0 17 3 19 12 6z
m-85 -17 c0 -10 -11 -11 -38 -5 -2 1 -1 5 2 9 8 13 36 10 36 -4z m120 13 c0
-2 -10 -12 -22 -23 l-23 -19 19 23 c18 21 26 27 26 19z m437 -14 c0 -7 -4 -13
-8 -13 -4 0 -9 6 -12 13 -3 8 0 14 7 14 7 0 13 -6 13 -14z m-276 -505 c76 -56
139 -108 139 -115 0 -8 7 -25 16 -38 15 -23 15 -25 0 -31 -9 -4 -44 1 -77 11
-68 18 -86 16 -98 -16 -7 -20 -20 -8 -127 115 -65 76 -120 141 -122 145 -1 4
25 -1 58 -12 68 -22 91 -15 71 22 -7 12 -9 21 -5 21 3 0 68 -46 145 -102z
m3343 -155 l28 -23 -58 6 -57 7 30 -44 c48 -72 49 -73 22 -58 -13 6 -50 29
-81 51 -63 42 -61 36 -26 130 l10 28 52 -37 c28 -20 64 -47 80 -60z m-3056
-183 c147 -74 193 -79 161 -18 -9 16 -8 19 3 12 27 -16 198 -147 198 -151 0
-2 -8 -2 -18 1 -10 4 -26 0 -36 -7 -18 -13 -18 -16 10 -65 16 -28 25 -54 22
-58 -4 -4 -79 23 -166 60 -160 66 -190 74 -208 56 -14 -14 -121 114 -135 162
-27 86 9 88 169 8z m-231 -432 c22 -24 7 -40 -30 -32 -41 8 -129 45 -123 51 2
3 22 11 43 18 33 11 42 11 66 -3 16 -10 35 -25 44 -34z"/>
<path d="M1396 8942 c-22 -25 -20 -79 4 -125 11 -20 20 -43 20 -51 0 -7 16
-45 36 -84 68 -138 204 -206 272 -138 13 13 10 16 -20 29 -58 24 -79 108 -28
115 17 3 31 -4 47 -25 l23 -28 0 30 c0 100 -134 251 -227 257 -16 1 -35 8 -44
15 -27 23 -64 25 -83 5z m89 -35 c37 -37 50 -74 41 -112 -15 -60 -117 1 -131
78 -14 71 35 89 90 34z m99 -128 c28 -32 31 -46 17 -68 -12 -19 -48 -5 -68 26
-14 21 -14 26 -2 34 8 5 22 7 32 5 9 -2 15 0 11 5 -3 5 -12 9 -20 9 -8 0 -14
5 -14 10 0 19 18 10 44 -21z"/>
<path d="M2795 7850 c-3 -5 -1 -10 4 -10 6 0 11 5 11 10 0 6 -2 10 -4 10 -3 0
-8 -4 -11 -10z"/>
<path d="M2835 7850 c3 -5 11 -10 16 -10 6 0 7 5 4 10 -3 6 -11 10 -16 10 -6
0 -7 -4 -4 -10z"/>
<path d="M2790 7810 c0 -5 5 -10 11 -10 5 0 7 5 4 10 -3 6 -8 10 -11 10 -2 0
-4 -4 -4 -10z"/>
<path d="M2845 7810 c-3 -5 -1 -10 4 -10 6 0 11 5 11 10 0 6 -2 10 -4 10 -3 0
-8 -4 -11 -10z"/>
<path d="M2870 7809 c0 -5 5 -7 10 -4 6 3 10 8 10 11 0 2 -4 4 -10 4 -5 0 -10
-5 -10 -11z"/>
<path d="M2636 7702 c-2 -4 5 -19 16 -32 12 -16 18 -19 14 -8 -3 10 -1 20 4
23 6 4 10 10 10 16 0 11 -37 12 -44 1z"/>
<path d="M2720 7695 c-10 -13 -9 -15 9 -15 12 0 21 6 21 15 0 8 -4 15 -9 15
-5 0 -14 -7 -21 -15z"/>
<path d="M2745 7670 c-15 -17 -16 -20 -3 -20 19 0 42 26 30 34 -5 3 -17 -3
-27 -14z"/>
<path d="M2790 7680 c0 -5 7 -10 15 -10 8 0 15 5 15 10 0 6 -7 10 -15 10 -8 0
-15 -4 -15 -10z"/>
<path d="M2832 7681 c4 -13 18 -16 19 -4 0 4 -5 9 -11 12 -7 2 -11 -2 -8 -8z"/>
<path d="M3080 7674 c0 -8 5 -12 10 -9 6 3 10 10 10 16 0 5 -4 9 -10 9 -5 0
-10 -7 -10 -16z"/>
<path d="M2595 7640 c-3 -5 1 -10 10 -10 9 0 13 5 10 10 -3 6 -8 10 -10 10 -2
0 -7 -4 -10 -10z"/>
<path d="M2623 7611 c-10 -15 -9 -22 1 -30 14 -11 24 1 32 37 4 19 -20 14 -33
-7z"/>
<path d="M3075 7611 c-7 -22 3 -51 17 -51 6 0 6 6 -1 14 -9 11 -10 20 -1 35 6
13 7 21 1 21 -5 0 -12 -8 -16 -19z"/>
<path d="M2698 7579 c-41 -23 -6 -79 49 -79 60 0 65 58 7 80 -31 12 -34 12
-56 -1z m82 -29 c0 -5 -7 -10 -15 -10 -8 0 -15 5 -15 10 0 6 7 10 15 10 8 0
15 -4 15 -10z m-47 -15 c-4 -15 -36 -12 -41 3 -3 9 3 13 19 10 13 -1 23 -7 22
-13z"/>
<path d="M3065 7510 c-3 -5 1 -10 9 -10 9 0 16 5 16 10 0 6 -4 10 -9 10 -6 0
-13 -4 -16 -10z"/>
<path d="M2659 7486 c26 -28 31 -31 31 -17 0 5 -12 17 -27 26 l-28 18 24 -27z"/>
<path d="M2860 6882 c0 -4 10 -9 22 -9 18 -2 20 0 8 7 -18 12 -30 13 -30 2z"/>
<path d="M2814 6846 c4 -18 3 -25 -6 -24 -22 5 -22 -85 0 -112 12 -14 24 -20
31 -15 9 5 10 10 2 18 -21 21 -11 28 11 7 12 -11 31 -20 41 -20 17 0 19 5 14
35 -3 19 -2 35 4 35 13 0 11 47 -3 56 -6 4 -8 3 -4 -4 3 -6 2 -13 -4 -17 -5
-3 -10 0 -10 7 -1 22 -25 46 -55 54 -26 6 -28 5 -21 -20z m67 -66 c-7 -3 -9
-15 -6 -26 6 -17 5 -17 -4 -2 -13 19 -4 51 11 42 7 -4 6 -9 -1 -14z m-35 -27
c-7 -7 -26 7 -26 19 0 6 6 6 15 -2 9 -7 13 -15 11 -17z"/>
<path d="M2013 6768 c-54 -28 -93 -55 -93 -64 0 -8 9 -33 21 -55 15 -31 24
-39 37 -34 32 12 36 10 48 -26 39 -114 33 -181 -18 -187 -20 -2 -33 6 -61 40
-20 24 -43 57 -51 73 -15 28 -14 31 10 56 l25 26 -18 39 c-10 21 -27 40 -37
42 -11 2 -49 -9 -85 -26 -36 -16 -79 -35 -95 -41 -24 -10 -27 -15 -21 -39 14
-57 29 -77 57 -74 21 2 31 -4 44 -25 85 -137 105 -161 149 -182 67 -31 135
-30 186 3 23 16 47 42 55 61 23 56 15 163 -16 230 -6 11 -16 39 -24 62 -15 41
-14 43 11 61 25 18 26 19 11 63 -8 24 -21 45 -29 45 -8 1 -56 -21 -106 -48z
m116 -5 c11 -25 10 -29 -13 -48 -22 -18 -24 -26 -21 -80 5 -76 7 -85 15 -85 7
0 32 -46 36 -68 1 -8 -6 -22 -16 -32 -21 -21 -40 -54 -40 -69 0 -6 9 -20 19
-30 19 -19 19 -20 0 -37 -23 -21 -133 -33 -143 -15 -7 10 -2 13 34 15 10 1 14
9 12 24 -2 15 8 33 32 56 42 39 44 54 15 156 -25 90 -34 103 -68 95 -24 -5
-28 -1 -40 30 -7 20 -11 37 -9 38 46 25 156 76 164 76 6 1 16 -11 23 -26z
m-236 -135 c12 -30 11 -34 -12 -54 l-24 -21 27 -48 c20 -37 24 -50 14 -57 -7
-4 -16 -8 -20 -8 -4 0 -14 -7 -22 -16 -14 -14 -19 -11 -46 33 -44 71 -48 75
-71 63 -17 -10 -22 -6 -35 26 -8 20 -13 38 -10 41 11 11 152 71 168 72 11 1
23 -11 31 -31z"/>
<path d="M1230 6500 c0 -5 5 -10 10 -10 6 0 10 5 10 10 0 6 -4 10 -10 10 -5 0
-10 -4 -10 -10z"/>
<path d="M3213 4821 c-72 -40 -154 -112 -181 -159 -24 -43 -21 -52 18 -52 70
0 274 179 256 225 -8 22 -35 18 -93 -14z"/>
<path d="M6420 4760 c0 -5 5 -10 11 -10 5 0 7 -5 4 -11 -4 -6 -14 -8 -22 -5
-10 4 -13 0 -11 -12 4 -20 45 -29 62 -12 8 8 7 10 -6 5 -10 -4 -18 -3 -18 3 0
6 6 12 13 15 9 3 9 7 -2 20 -15 19 -31 22 -31 7z"/>
<path d="M6273 4740 c3 -11 1 -22 -3 -25 -5 -3 -11 3 -13 12 -4 14 -5 13 -6
-4 -1 -25 9 -29 27 -11 15 15 16 48 1 48 -6 0 -9 -9 -6 -20z"/>
<path d="M6327 4723 c-4 -3 -7 -17 -7 -29 0 -13 -7 -27 -16 -32 -14 -8 -14
-12 -3 -31 21 -33 50 -37 72 -10 18 23 18 23 -7 36 -29 15 -32 23 -15 40 6 6
8 16 5 22 -8 12 -20 14 -29 4z"/>
<path d="M6445 4110 c-3 -6 1 -7 9 -4 18 7 21 14 7 14 -6 0 -13 -4 -16 -10z"/>
<path d="M8038 3918 c-22 -29 -35 -55 -36 -78 -1 -34 -1 -34 16 12 9 26 24 56
33 66 20 23 31 42 26 42 -3 0 -20 -19 -39 -42z"/>
<path d="M7522 3799 c2 -7 -3 -13 -9 -14 -7 0 -13 -3 -13 -8 1 -16 -31 -67
-39 -63 -5 3 -17 -4 -27 -16 -11 -12 -13 -18 -5 -13 11 6 13 4 8 -9 -4 -10 -3
-15 3 -11 6 4 9 14 8 23 -2 11 4 17 17 17 11 0 26 4 34 9 11 7 13 5 8 -8 -4
-9 -3 -15 2 -11 6 3 10 13 10 23 1 28 7 57 14 69 4 6 3 15 -3 18 -6 4 -9 1 -8
-6z m-2 -38 c0 -5 -9 -19 -20 -32 l-21 -24 15 31 c8 17 12 35 8 39 -4 5 -1 5
6 1 6 -4 12 -11 12 -15z"/>
<path d="M7555 3741 c-3 -5 -2 -12 3 -15 5 -3 9 1 9 9 0 17 -3 19 -12 6z"/>
<path d="M7534 3723 c5 -30 -25 -58 -44 -40 -10 9 -11 9 -6 0 4 -8 1 -13 -8
-13 -8 0 -18 -4 -21 -10 -4 -7 2 -7 19 0 16 6 27 6 31 0 4 -6 2 -10 -3 -10 -6
0 -13 -8 -16 -17 -6 -15 -4 -15 14 2 11 10 18 21 15 23 -3 3 3 15 14 26 14 16
16 26 10 41 -9 19 -9 19 -5 -2z"/>
<path d="M7583 3725 c0 -8 4 -12 9 -9 5 3 6 10 3 15 -9 13 -12 11 -12 -6z"/>
<path d="M7545 3682 c-13 -19 -14 -23 -3 -14 14 11 19 10 32 -10 11 -15 12
-24 5 -29 -7 -4 -5 -8 4 -12 12 -4 14 0 11 20 -5 24 -3 25 13 12 16 -12 16
-11 -1 8 -10 12 -23 21 -30 20 -6 -1 -10 6 -8 16 4 23 1 21 -23 -11z"/>
<path d="M7401 3656 c-8 -10 -8 -16 3 -25 9 -7 17 -8 20 -2 3 5 15 7 25 4 10
-3 21 -1 24 4 3 4 -9 8 -26 8 -20 0 -31 5 -29 13 3 16 -3 15 -17 -2z"/>
<path d="M7553 3645 c0 -8 4 -12 9 -9 5 3 6 10 3 15 -9 13 -12 11 -12 -6z"/>
<path d="M7440 3615 c0 -2 6 -8 13 -14 10 -8 14 -7 14 2 0 8 -6 14 -14 14 -7
0 -13 -1 -13 -2z"/>
<path d="M190 3211 c0 -7 -4 -10 -8 -7 -15 9 -38 -12 -26 -24 7 -7 16 -5 29
10 10 11 15 23 12 27 -4 3 -7 1 -7 -6z"/>
<path d="M1605 3059 c-3 -4 2 -6 10 -5 21 3 28 13 10 13 -9 0 -18 -4 -20 -8z"/>
<path d="M1776 3022 c-3 -5 1 -9 9 -9 8 0 12 4 9 9 -3 4 -7 8 -9 8 -2 0 -6 -4
-9 -8z"/>
<path d="M1580 2961 c0 -6 4 -13 10 -16 6 -3 7 1 4 9 -7 18 -14 21 -14 7z"/>
<path d="M1636 2938 c3 -4 11 -5 19 -1 21 7 19 12 -4 10 -11 0 -18 -5 -15 -9z"/>
<path d="M1876 2851 c8 -8 44 -8 44 1 0 4 -11 7 -25 6 -13 -1 -22 -4 -19 -7z"/>
<path d="M250 1821 c0 -5 5 -13 10 -16 6 -3 10 -2 10 4 0 5 -4 13 -10 16 -5 3
-10 2 -10 -4z"/>
<path d="M7818 4693 c7 -3 16 -2 19 1 4 3 -2 6 -13 5 -11 0 -14 -3 -6 -6z"/>
<path d="M8781 4673 c-11 -11 -16 -13 -19 -4 -3 9 -7 9 -18 0 -16 -13 -19 -39
-4 -39 6 0 10 5 10 11 0 6 6 9 14 6 13 -5 46 21 46 36 0 12 -14 7 -29 -10z"/>
<path d="M9027 4550 c3 -11 0 -20 -6 -20 -6 0 -11 -13 -11 -30 0 -16 4 -30 10
-30 5 0 7 7 4 15 -4 8 -1 15 5 15 13 0 15 56 2 64 -5 4 -7 -3 -4 -14z"/>
<path d="M8760 4550 c8 -5 20 -10 25 -10 6 0 3 5 -5 10 -8 5 -19 10 -25 10 -5
0 -3 -5 5 -10z"/>
<path d="M8738 4513 c6 -2 18 -2 25 0 6 3 1 5 -13 5 -14 0 -19 -2 -12 -5z"/>
<path d="M8820 4494 c19 -8 51 -29 70 -47 l35 -32 -30 33 c-31 35 -74 62 -97
62 -7 -1 3 -8 22 -16z"/>
<path d="M8860 4506 c0 -3 9 -10 20 -16 11 -6 20 -8 20 -6 0 3 -9 10 -20 16
-11 6 -20 8 -20 6z"/>
<path d="M8940 4456 c0 -2 8 -10 18 -17 15 -13 16 -12 3 4 -13 16 -21 21 -21
13z"/>
<path d="M8427 4419 c7 -7 15 -10 18 -7 3 3 -2 9 -12 12 -14 6 -15 5 -6 -5z"/>
<path d="M8988 4418 c9 -9 7 -18 -11 -37 l-22 -26 27 24 c21 19 25 27 17 38
-6 7 -14 13 -17 13 -3 0 -1 -5 6 -12z"/>
<path d="M8476 4353 c-9 -19 -18 -51 -21 -71 l-4 -37 11 35 c31 104 41 110 86
53 56 -72 79 -133 42 -113 -11 6 -20 8 -20 6 0 -3 14 -13 31 -22 30 -15 32
-15 53 7 15 17 16 19 2 9 -16 -13 -20 -12 -32 5 -8 10 -14 24 -14 30 0 7 -13
30 -29 52 -16 23 -28 43 -25 45 2 3 -11 12 -30 20 l-33 16 -17 -35z"/>
<path d="M8720 4376 c0 -2 8 -10 18 -17 15 -13 16 -12 3 4 -13 16 -21 21 -21
13z"/>
<path d="M8496 4234 c-25 -17 -41 -23 -45 -15 -4 6 -11 -2 -18 -18 l-11 -29
52 36 c57 39 72 52 65 52 -2 0 -22 -12 -43 -26z"/>
<path d="M8750 4238 c0 -10 9 -9 35 2 17 8 16 8 -7 7 -16 -1 -28 -5 -28 -9z"/>
<path d="M8597 4083 c12 -2 27 -11 34 -19 16 -20 21 -100 8 -128 -9 -20 -9
-20 3 -2 7 11 20 27 29 36 19 20 21 50 2 43 -7 -3 -13 1 -13 10 0 25 -40 67
-63 66 l-22 -2 22 -4z"/>
<path d="M8375 4040 c-9 -16 -13 -30 -11 -30 3 0 12 14 21 30 9 17 13 30 11
30 -3 0 -12 -13 -21 -30z"/>
<path d="M8550 4044 c-12 -32 -13 -82 -1 -68 9 9 22 94 15 94 -3 0 -9 -12 -14
-26z"/>
<path d="M8594 4031 c9 -10 16 -23 16 -30 0 -9 3 -9 14 1 16 15 5 33 -25 41
-19 5 -20 4 -5 -12z"/>
<path d="M8412 3998 c5 -15 28 -18 29 -3 0 6 -7 12 -17 13 -10 3 -15 -1 -12
-10z"/>
<path d="M8554 3951 c7 -11 46 -35 46 -28 0 3 -12 12 -26 22 -15 9 -23 12 -20
6z"/>
<path d="M9510 3781 c14 -11 30 -21 35 -21 11 0 -7 14 -40 31 -13 7 -12 3 5
-10z"/>
<path d="M9093 3735 c0 -22 2 -30 4 -17 2 12 2 30 0 40 -3 9 -5 -1 -4 -23z"/>
<path d="M9554 3736 c4 -10 0 -29 -9 -42 -13 -20 -13 -23 0 -18 20 8 28 40 15
61 -11 17 -11 17 -6 -1z"/>
<path d="M9368 3725 c-3 -6 5 -24 18 -40 13 -17 24 -25 24 -18 0 6 -6 18 -13
25 -8 7 -16 20 -19 28 -2 8 -7 10 -10 5z"/>
<path d="M9768 3681 c9 -16 18 -28 20 -27 5 6 -21 56 -29 56 -5 0 0 -13 9 -29z"/>
<path d="M9791 3635 c0 -5 6 -32 13 -60 8 -27 14 -41 14 -30 0 21 -25 107 -27
90z"/>
<path d="M9720 3593 c0 -22 2 -25 10 -13 13 20 13 40 0 40 -5 0 -10 -12 -10
-27z"/>
<path d="M7195 3600 c11 -5 27 -9 35 -9 9 0 8 4 -5 9 -11 5 -27 9 -35 9 -9 0
-8 -4 5 -9z"/>
<path d="M8796 3583 c5 -5 12 -12 16 -18 4 -6 8 -2 8 8 0 9 -7 17 -17 17 -9 0
-12 -3 -7 -7z"/>
<path d="M9741 3564 c0 -11 3 -14 6 -6 3 7 2 16 -1 19 -3 4 -6 -2 -5 -13z"/>
<path d="M7093 3543 c-37 -14 23 -90 108 -136 38 -21 23 -7 -45 40 -66 47 -61
87 14 96 27 3 24 4 -15 5 -27 0 -56 -2 -62 -5z"/>
<path d="M6756 3531 c-8 -12 38 -48 83 -67 42 -18 46 -18 31 1 -17 21 4 20 25
-1 19 -20 33 -11 16 10 -7 8 -10 19 -7 24 3 6 -9 12 -27 14 -17 3 -41 8 -52
12 -18 7 -18 6 -2 -4 9 -6 17 -16 17 -21 0 -15 -42 0 -62 22 -9 11 -19 15 -22
10z"/>
<path d="M9752 3525 c0 -11 3 -29 8 -40 11 -25 11 1 0 35 -6 20 -8 21 -8 5z"/>
<path d="M9823 3485 c0 -22 2 -30 4 -17 2 12 2 30 0 40 -3 9 -5 -1 -4 -23z"/>
<path d="M6512 3488 c-30 -15 -25 -45 11 -72 38 -28 156 -36 177 -11 41 49
-117 119 -188 83z m127 -27 c35 -24 37 -39 6 -51 -52 -20 -152 20 -139 55 11
28 91 25 133 -4z"/>
<path d="M8860 3491 c0 -11 26 -22 34 -14 3 3 3 10 0 14 -7 12 -34 11 -34 0z"/>
<path d="M9151 3468 c13 -21 28 -38 33 -38 5 0 2 8 -7 18 -21 23 -13 32 30 32
38 0 65 -12 103 -44 l25 -21 -20 24 c-32 37 -73 54 -121 48 -24 -2 -48 0 -55
7 -6 6 -1 -6 12 -26z"/>
<path d="M9023 3443 c-10 -10 -13 -14 -6 -9 9 6 18 5 25 -2 12 -12 10 -13 -14
-16 -19 -2 -16 -40 3 -44 9 -1 20 8 27 23 16 35 15 45 -4 45 -8 0 -12 5 -9 10
10 15 -1 12 -22 -7z"/>
<path d="M9190 3420 c-8 -5 -11 -12 -7 -16 4 -4 15 0 24 9 18 18 8 23 -17 7z"/>
<path d="M9082 3408 c-13 -13 -15 -37 -6 -62 7 -18 39 -22 49 -6 4 6 -1 7 -12
3 -16 -6 -16 -5 -4 10 8 10 11 27 7 42 -7 28 -16 31 -34 13z m20 -40 c-8 -8
-9 -4 -5 13 4 13 8 18 11 10 2 -7 -1 -18 -6 -23z"/>
<path d="M7422 3402 c-8 -5 33 -24 110 -50 67 -23 123 -40 125 -38 3 2 -32 16
-76 31 -73 24 -86 33 -82 58 1 10 -61 9 -77 -1z"/>
<path d="M7260 3376 c0 -3 9 -10 20 -16 11 -6 20 -8 20 -6 0 3 -9 10 -20 16
-11 6 -20 8 -20 6z"/>
<path d="M7400 3300 c19 -11 40 -19 45 -19 6 0 -6 8 -25 19 -19 11 -39 19 -45
19 -5 0 6 -8 25 -19z"/>
<path d="M9751 3244 c0 -11 3 -14 6 -6 3 7 2 16 -1 19 -3 4 -6 -2 -5 -13z"/>
<path d="M8070 3246 c0 -3 9 -10 20 -16 11 -6 20 -8 20 -6 0 3 -9 10 -20 16
-11 6 -20 8 -20 6z"/>
<path d="M9625 3238 c6 -16 64 -43 72 -34 3 2 -6 7 -19 11 -13 4 -31 14 -41
23 -16 15 -17 14 -12 0z"/>
<path d="M6975 3206 c15 -11 17 -18 10 -35 -9 -18 -13 -19 -35 -8 -16 9 -24
20 -22 32 3 16 2 17 -12 6 -34 -28 -6 -91 40 -91 10 0 32 -7 48 -15 35 -19 42
-19 27 -1 -9 10 -8 16 4 26 8 7 15 26 15 42 0 24 -6 32 -35 44 -44 18 -65 18
-40 0z m37 -88 c-9 -9 -15 -9 -24 0 -10 10 -10 15 2 22 20 12 38 -6 22 -22z"/>
<path d="M9751 3204 c0 -11 3 -14 6 -6 3 7 2 16 -1 19 -3 4 -6 -2 -5 -13z"/>
<path d="M7862 3126 c3 -4 46 -18 94 -32 48 -13 83 -20 78 -15 -5 4 -38 16
-74 25 -36 10 -74 20 -85 23 -11 3 -17 2 -13 -1z"/>
<path d="M15 2929 c-3 -4 2 -6 10 -5 21 3 28 13 10 13 -9 0 -18 -4 -20 -8z"/>
<path d="M93 2885 c0 -8 4 -12 9 -9 5 3 6 10 3 15 -9 13 -12 11 -12 -6z"/>
<path d="M731 2844 c0 -11 3 -14 6 -6 3 7 2 16 -1 19 -3 4 -6 -2 -5 -13z"/>
<path d="M175 2841 c-3 -5 -2 -12 3 -15 5 -3 9 1 9 9 0 17 -3 19 -12 6z"/>
<path d="M220 2835 c0 -2 6 -8 13 -14 10 -8 14 -7 14 2 0 8 -6 14 -14 14 -7 0
-13 -1 -13 -2z"/>
<path d="M526 2793 c-6 -14 -5 -15 5 -6 7 7 10 15 7 18 -3 3 -9 -2 -12 -12z"/>
<path d="M570 2801 c0 -6 4 -13 10 -16 6 -3 7 1 4 9 -7 18 -14 21 -14 7z"/>
<path d="M335 2791 c-3 -5 -2 -12 3 -15 5 -3 9 1 9 9 0 17 -3 19 -12 6z"/>
<path d="M210 2620 c6 -11 13 -20 16 -20 2 0 0 9 -6 20 -6 11 -13 20 -16 20
-2 0 0 -9 6 -20z"/>
<path d="M7654 2485 c-123 -27 -247 -110 -301 -202 -37 -64 -54 -129 -54 -213
0 -337 338 -716 780 -875 267 -97 564 -85 723 27 14 10 25 4 69 -40 56 -56 83
-63 32 -9 -50 53 -64 79 -51 94 8 10 23 1 72 -44 34 -32 82 -69 107 -82 41
-23 40 -20 -31 46 -108 101 -110 106 -69 188 83 169 34 405 -131 623 -178 236
-493 430 -793 487 -96 18 -270 18 -353 0z m356 -11 c296 -56 611 -253 791
-495 104 -141 166 -321 155 -450 -6 -66 -27 -141 -47 -165 -7 -9 -159 77 -627
358 -339 203 -623 375 -630 382 -17 16 -5 45 22 55 11 5 68 2 126 -5 101 -13
140 -12 140 6 0 15 -69 69 -215 167 -94 63 -145 103 -143 113 8 42 274 64 428
34z m-504 -130 c66 -54 57 -84 -25 -84 -20 0 -42 -5 -48 -11 -12 -12 -63 15
-63 34 0 11 79 97 89 97 2 0 24 -16 47 -36z m-34 -162 c46 -32 110 -76 143
-97 33 -21 85 -54 115 -73 30 -20 66 -43 80 -52 14 -8 69 -42 123 -75 54 -32
103 -67 109 -78 7 -14 12 -16 17 -8 5 8 26 0 67 -28 58 -38 436 -259 505 -295
20 -11 36 -26 36 -35 -2 -37 26 -129 48 -163 14 -21 25 -40 25 -43 0 -10 -101
-51 -160 -66 -87 -22 -277 -17 -384 9 -469 116 -848 494 -860 857 -3 86 26
205 50 205 2 0 41 -26 86 -58z m1306 -923 c-19 -12 -37 11 -46 61 -14 75 -1
80 30 11 22 -50 26 -66 16 -72z m55 48 c-7 -11 -9 -7 -17 28 l-6 30 14 -25 c8
-14 12 -28 9 -33z"/>
<path d="M7824 1889 c-14 -23 -7 -104 11 -140 29 -55 134 -151 210 -190 119
-63 230 -73 303 -29 38 24 41 42 7 64 -32 21 -32 21 -27 -12 13 -90 -146 -82
-194 10 -22 43 -15 70 26 90 19 10 29 18 22 18 -7 0 -23 10 -36 23 -12 12 -34
28 -49 36 -15 8 -27 18 -27 23 0 5 -4 6 -10 3 -5 -3 -52 19 -103 49 -114 67
-123 71 -133 55z"/>
<path d="M1246 2388 c3 -5 10 -6 15 -3 13 9 11 12 -6 12 -8 0 -12 -4 -9 -9z"/>
<path d="M9991 2184 c0 -11 3 -14 6 -6 3 7 2 16 -1 19 -3 4 -6 -2 -5 -13z"/>
<path d="M20 1843 c0 -6 5 -15 10 -18 6 -3 8 -18 6 -33 -4 -22 -3 -24 7 -12
14 17 68 21 80 5 5 -6 7 -2 5 10 -3 16 -10 20 -37 18 -24 -1 -39 5 -52 20 -10
12 -18 17 -19 10z"/>
<path d="M704 1828 c-10 -13 -12 -17 -4 -11 9 9 17 9 26 2 9 -7 12 -6 10 5 -4
26 -12 27 -32 4z"/>
<path d="M531 1784 c0 -11 3 -14 6 -6 3 7 2 16 -1 19 -3 4 -6 -2 -5 -13z"/>
<path d="M603 1763 c0 -9 4 -10 14 -2 7 6 13 12 13 14 0 1 -6 2 -13 2 -8 0
-14 -6 -14 -14z"/>
<path d="M1393 1765 c0 -8 4 -12 9 -9 5 3 6 10 3 15 -9 13 -12 11 -12 -6z"/>
<path d="M576 1761 c-3 -5 2 -15 12 -22 15 -12 16 -12 5 2 -7 9 -10 19 -6 22
3 4 4 7 0 7 -3 0 -8 -4 -11 -9z"/>
<path d="M631 1756 c-9 -10 -7 -17 6 -27 16 -12 17 -12 6 2 -10 12 -10 18 -1
27 7 7 9 12 6 12 -3 0 -11 -6 -17 -14z"/>
<path d="M794 1756 c1 -8 5 -18 8 -22 4 -3 5 1 4 10 -1 8 -5 18 -8 22 -4 3 -5
-1 -4 -10z"/>
<path d="M1033 1758 c2 -7 -3 -22 -12 -33 -16 -20 -16 -20 6 -2 12 11 19 25
16 33 -6 17 -16 19 -10 2z"/>
<path d="M1083 1758 c1 -7 -4 -12 -11 -10 -8 1 -11 -2 -7 -8 5 -8 11 -8 21 1
7 6 11 15 8 20 -8 13 -14 11 -11 -3z"/>
<path d="M1146 1758 c3 -5 10 -6 15 -3 13 9 11 12 -6 12 -8 0 -12 -4 -9 -9z"/>
<path d="M1177 1755 c-4 -8 -3 -16 1 -19 4 -3 9 4 9 15 2 23 -3 25 -10 4z"/>
<path d="M1264 1756 c1 -8 5 -18 8 -22 4 -3 5 1 4 10 -1 8 -5 18 -8 22 -4 3
-5 -1 -4 -10z"/>
<path d="M1675 1762 c-3 -3 -20 -5 -38 -4 -29 2 -33 -1 -33 -22 0 -14 2 -23 6
-20 3 3 5 11 5 17 0 7 14 12 30 12 20 -1 29 -5 27 -15 -3 -11 0 -11 14 1 9 8
19 13 21 12 8 -7 24 -2 19 6 -7 11 -43 21 -51 13z"/>
<path d="M829 1743 c-13 -16 -12 -17 4 -4 9 7 17 15 17 17 0 8 -8 3 -21 -13z"/>
<path d="M859 1743 c-13 -16 -12 -17 4 -4 9 7 17 15 17 17 0 8 -8 3 -21 -13z"/>
<path d="M540 1739 c-13 -9 -13 -10 1 -6 9 3 23 0 30 -6 11 -10 11 -9 0 6 -7
9 -14 17 -15 17 0 0 -8 -5 -16 -11z"/>
<path d="M1125 1741 c-3 -5 -2 -12 3 -15 5 -3 9 1 9 9 0 17 -3 19 -12 6z"/>
<path d="M1226 1738 c3 -5 10 -6 15 -3 13 9 11 12 -6 12 -8 0 -12 -4 -9 -9z"/>
<path d="M1416 1741 c-3 -4 4 -17 17 -27 22 -19 22 -19 4 2 -9 11 -14 24 -10
27 3 4 4 7 0 7 -3 0 -8 -4 -11 -9z"/>
<path d="M1440 1741 c0 -6 4 -13 10 -16 6 -3 7 1 4 9 -7 18 -14 21 -14 7z"/>
<path d="M1481 1736 c-9 -10 -8 -16 4 -26 8 -7 12 -17 8 -23 -4 -6 -1 -7 6 -3
9 6 9 12 -3 25 -12 13 -13 20 -4 29 7 7 9 12 6 12 -3 0 -11 -6 -17 -14z"/>
<path d="M710 1731 c0 -6 4 -13 10 -16 6 -3 7 1 4 9 -7 18 -14 21 -14 7z"/>
<path d="M1344 1726 c1 -8 5 -18 8 -22 4 -3 5 1 4 10 -1 8 -5 18 -8 22 -4 3
-5 -1 -4 -10z"/>
<path d="M1766 1713 c-14 -19 -15 -27 -7 -36 9 -9 10 -7 5 8 -7 18 -6 18 9 6
9 -7 14 -18 10 -25 -4 -6 1 -5 10 3 9 7 17 16 17 19 0 3 -3 2 -7 -1 -3 -4 -12
-2 -20 4 -10 9 -11 15 -2 26 7 7 10 15 8 17 -2 2 -12 -7 -23 -21z"/>
<path d="M1975 1723 c-14 -32 -12 -63 3 -76 13 -10 14 -9 7 3 -13 20 -13 52
-2 68 6 7 8 15 5 18 -3 3 -9 -3 -13 -13z"/>
<path d="M1506 1718 c3 -5 10 -6 15 -3 13 9 11 12 -6 12 -8 0 -12 -4 -9 -9z"/>
<path d="M1546 1720 c5 -8 9 -18 9 -22 0 -3 3 -9 7 -13 3 -4 5 0 4 9 -1 9 -8
22 -16 29 -10 10 -11 9 -4 -3z"/>
<path d="M1635 1722 c3 -3 0 -11 -6 -18 -7 -9 -6 -14 3 -20 7 -4 10 -3 5 1 -4
5 0 16 8 25 13 15 13 17 0 17 -8 0 -13 -3 -10 -5z"/>
<path d="M1999 1725 c-5 -48 -5 -63 3 -59 5 3 7 9 4 12 -3 3 -2 10 4 16 5 7 5
17 0 26 -6 8 -10 11 -11 5z"/>
<path d="M1233 1713 c4 -3 1 -13 -6 -22 -11 -14 -10 -14 5 -2 16 12 16 31 1
31 -4 0 -3 -3 0 -7z"/>
<path d="M1403 1705 c0 -8 4 -12 9 -9 5 3 6 10 3 15 -9 13 -12 11 -12 -6z"/>
<path d="M1323 1695 c0 -8 4 -12 9 -9 5 3 6 10 3 15 -9 13 -12 11 -12 -6z"/>
<path d="M1460 1701 c0 -6 4 -13 10 -16 6 -3 7 1 4 9 -7 18 -14 21 -14 7z"/>
<path d="M1525 1701 c-3 -5 -2 -12 3 -15 5 -3 9 1 9 9 0 17 -3 19 -12 6z"/>
<path d="M1693 1695 c0 -8 4 -12 9 -9 5 3 6 10 3 15 -9 13 -12 11 -12 -6z"/>
<path d="M1842 1696 c0 -6 -3 -21 -6 -34 -3 -14 -1 -20 5 -16 6 3 8 9 5 12 -4
3 0 15 8 27 11 16 11 22 2 22 -7 0 -13 -5 -14 -11z"/>
<path d="M2030 1700 c0 -5 1 -12 3 -14 1 -2 -6 -13 -16 -24 -15 -16 -16 -22
-5 -28 7 -4 10 -4 6 1 -4 4 -2 15 4 23 12 14 22 52 13 52 -3 0 -5 -4 -5 -10z"/>
<path d="M1286 1688 c3 -5 10 -6 15 -3 13 9 11 12 -6 12 -8 0 -12 -4 -9 -9z"/>
<path d="M1586 1688 c3 -5 10 -6 15 -3 13 9 11 12 -6 12 -8 0 -12 -4 -9 -9z"/>
<path d="M1656 1688 c3 -5 10 -6 15 -3 13 9 11 12 -6 12 -8 0 -12 -4 -9 -9z"/>
<path d="M1939 1678 c-5 -18 -6 -38 -1 -34 7 8 12 36 6 36 -2 0 -4 -1 -5 -2z"/>
<path d="M1805 1661 c-3 -5 -2 -12 3 -15 5 -3 9 1 9 9 0 17 -3 19 -12 6z"/>
<path d="M2193 1655 c0 -8 4 -12 9 -9 5 3 6 10 3 15 -9 13 -12 11 -12 -6z"/>
<path d="M2244 1656 c1 -8 5 -18 8 -22 4 -3 5 1 4 10 -1 8 -5 18 -8 22 -4 3
-5 -1 -4 -10z"/>
<path d="M2443 1656 c1 -6 -4 -10 -11 -8 -8 1 -11 -2 -7 -8 5 -8 13 -6 26 6
23 21 23 21 5 21 -8 0 -14 -5 -13 -11z"/>
<path d="M2523 1653 c0 -9 4 -10 14 -2 7 6 13 12 13 14 0 1 -6 2 -13 2 -8 0
-14 -6 -14 -14z"/>
<path d="M1755 1651 c-3 -5 -2 -12 3 -15 5 -3 9 1 9 9 0 17 -3 19 -12 6z"/>
<path d="M2156 1648 c3 -5 10 -6 15 -3 13 9 11 12 -6 12 -8 0 -12 -4 -9 -9z"/>
<path d="M2469 1643 c-13 -16 -12 -17 4 -4 16 13 21 21 13 21 -2 0 -10 -8 -17
-17z"/>
<path d="M2366 1638 c3 -5 10 -6 15 -3 13 9 11 12 -6 12 -8 0 -12 -4 -9 -9z"/>
<path d="M2391 1627 c-13 -21 -12 -21 5 -5 10 10 16 20 13 22 -3 3 -11 -5 -18
-17z"/>
<path d="M2495 1641 c-3 -5 -2 -12 3 -15 5 -3 9 1 9 9 0 17 -3 19 -12 6z"/>
<path d="M2546 1641 c-3 -5 1 -14 9 -21 8 -7 12 -17 8 -23 -4 -6 -1 -7 6 -3 9
6 9 12 -3 25 -9 10 -13 21 -9 24 3 4 4 7 0 7 -3 0 -8 -4 -11 -9z"/>
<path d="M2340 1636 c0 -2 8 -10 18 -17 15 -13 16 -12 3 4 -13 16 -21 21 -21
13z"/>
<path d="M2833 1612 c-1 -22 0 -24 9 -8 6 10 6 22 2 26 -5 5 -10 -3 -11 -18z"/>
<path d="M3280 1626 c16 -16 11 -30 -6 -15 -25 20 -40 19 -41 -5 -2 -19 -1
-20 8 -3 10 18 12 18 30 1 10 -9 20 -15 20 -13 8 23 4 46 -8 46 -9 0 -10 -4
-3 -11z"/>
<path d="M2529 1617 c6 -8 7 -18 3 -22 -4 -5 -1 -5 6 -1 10 6 10 11 1 22 -6 8
-14 14 -16 14 -3 0 0 -6 6 -13z"/>
<path d="M2651 1616 c-9 -11 -9 -16 1 -22 7 -4 10 -4 6 1 -4 4 -3 14 3 22 6 7
9 13 6 13 -2 0 -10 -6 -16 -14z"/>
<path d="M2746 1615 c7 -18 6 -19 -12 -5 -18 14 -18 14 -5 -3 10 -12 17 -15
25 -7 7 7 6 14 -3 23 -10 10 -11 8 -5 -8z"/>
<path d="M2865 1621 c-5 -10 11 -24 31 -27 13 -2 13 21 0 33 -4 4 -6 4 -4 -2
2 -5 -1 -11 -7 -12 -5 -2 -9 2 -7 7 3 13 -5 13 -13 1z"/>
<path d="M3129 1628 c0 -2 -2 -11 -4 -21 -3 -15 -1 -16 11 -6 7 6 11 15 8 20
-5 9 -13 12 -15 7z"/>
<path d="M3200 1615 c5 -7 6 -16 2 -21 -4 -5 -3 -5 2 -1 15 12 15 34 0 34 -9
0 -11 -4 -4 -12z"/>
<path d="M2475 1610 c-4 -6 -11 -7 -17 -4 -7 4 -8 2 -4 -5 4 -6 11 -9 16 -6 4
3 10 -1 13 -7 3 -7 4 -3 4 10 -1 25 -3 26 -12 12z"/>
<path d="M2770 1611 c0 -6 4 -13 10 -16 6 -3 7 1 4 9 -7 18 -14 21 -14 7z"/>
<path d="M2924 1609 c1 -7 10 -13 19 -15 9 -1 15 2 11 7 -3 5 -9 7 -14 4 -4
-3 -11 0 -13 5 -3 6 -4 5 -3 -1z"/>
<path d="M3487 1607 c-3 -8 1 -14 8 -14 7 0 11 6 8 14 -3 7 -6 13 -8 13 -2 0
-5 -6 -8 -13z"/>
<path d="M3510 1615 c0 -2 6 -8 13 -14 10 -8 14 -7 14 2 0 8 -6 14 -14 14 -7
0 -13 -1 -13 -2z"/>
<path d="M9295 1380 c-47 -22 -72 -44 -103 -87 -34 -48 -26 -50 11 -1 45 60
126 101 188 95 64 -7 101 -28 134 -79 54 -81 28 -203 -57 -273 -18 -15 -23
-22 -12 -16 21 10 70 63 89 95 8 15 15 16 38 7 16 -6 38 -11 50 -11 19 0 18 2
-9 19 -54 33 -51 41 18 42 l63 0 -55 15 c-59 16 -88 34 -54 34 10 0 42 12 69
25 28 14 41 23 30 19 -11 -3 -43 -8 -72 -11 l-52 -6 -16 39 c-32 77 -88 114
-172 114 -26 0 -66 -9 -88 -20z"/>
<path d="M9328 1264 c-28 -15 -48 -43 -47 -66 0 -7 4 -3 9 10 9 22 11 22 34 6
29 -18 46 -12 46 17 0 24 12 24 33 1 31 -34 10 -111 -31 -113 -12 0 -13 -2 -4
-6 8 -3 27 7 43 23 39 38 41 93 3 123 -31 25 -49 26 -86 5z"/>
<path d="M7138 1179 c-21 -6 -57 -29 -80 -51 l-43 -40 41 31 c53 39 85 51 139
51 57 0 93 -14 133 -53 38 -37 56 -94 47 -150 -10 -54 -86 -133 -139 -143 -59
-11 -123 1 -169 31 -24 17 -36 21 -28 11 32 -39 91 -58 160 -54 36 3 73 8 82
12 12 5 18 1 23 -16 3 -13 15 -34 26 -48 l20 -25 -8 25 c-5 14 -12 39 -16 55
l-7 30 40 -40 c47 -45 52 -42 16 11 -35 51 -31 57 18 29 49 -29 87 -34 42 -6
-16 10 -38 27 -47 37 -16 18 -16 23 -2 64 19 55 12 116 -19 162 -44 65 -148
99 -229 77z"/>
<path d="M7135 1069 c-4 -6 -4 -13 -1 -16 3 -4 6 -1 6 5 0 7 5 12 11 12 5 0 7
-5 3 -12 -4 -7 -3 -8 5 -4 12 8 6 26 -9 26 -5 0 -12 -5 -15 -11z"/>
<path d="M9395 1000 c-13 -6 -15 -9 -5 -9 8 0 22 4 30 9 18 12 2 12 -25 0z"/>
<path d="M8240 960 c-492 -52 -928 -293 -1244 -688 l-55 -70 -71 21 c-38 12
-69 24 -68 28 2 4 54 64 116 133 104 118 127 156 102 171 -19 12 -53 -7 -144
-84 -50 -42 -123 -102 -162 -134 l-72 -57 -88 16 c-139 25 -335 30 -414 10
-141 -36 -210 -115 -210 -242 l0 -64 323 0 322 0 45 52 46 51 80 -12 c105 -17
110 -20 90 -60 l-17 -31 666 0 665 0 0 48 c0 65 24 154 62 224 38 71 133 162
204 195 227 104 503 78 784 -74 145 -78 284 -200 377 -330 l45 -63 189 0 c225
0 220 -4 131 117 -32 43 -61 83 -65 90 -19 31 47 116 106 136 15 6 17 25 17
203 0 183 -1 196 -17 189 -39 -15 -180 -35 -218 -30 -41 5 -126 9 -158 6 -10
0 -32 -14 -48 -30 -23 -24 -29 -38 -29 -75 l0 -45 -72 54 c-152 115 -431 247
-623 295 -194 49 -420 68 -595 50z m43 -24 c44 -18 95 -78 103 -121 20 -108
-68 -169 -261 -182 -96 -6 -243 12 -409 48 -98 22 -139 16 -151 -22 -10 -32 2
-53 80 -129 88 -85 99 -111 63 -147 -50 -49 -281 -93 -573 -109 l-129 -7 31
39 c83 104 257 259 393 349 209 138 432 227 690 275 119 23 124 23 163 6z
m-1263 -407 c0 -6 -4 -7 -10 -4 -5 3 -10 11 -10 16 0 6 5 7 10 4 6 -3 10 -11
10 -16z m-75 -64 c18 -14 18 -16 2 -32 -16 -16 -18 -16 -38 4 -35 35 -5 58 36
28z m-62 -98 c-4 -7 -49 -60 -102 -119 l-94 -108 -44 47 c-24 25 -42 47 -41
48 2 1 54 43 117 93 l114 92 28 -21 c17 -12 26 -25 22 -32z m-459 -265 c-48
-42 -113 -92 -118 -92 -3 0 -6 6 -6 14 0 25 43 66 85 81 40 13 57 12 39 -3z"/>
<path d="M2770 299 c0 -6 -7 -9 -15 -5 -8 3 -15 1 -15 -5 0 -6 -7 -9 -15 -5
-15 5 -21 -5 -9 -17 10 -10 64 14 64 29 0 8 -2 14 -5 14 -3 0 -5 -5 -5 -11z"/>
<path d="M2830 275 c10 -12 10 -22 1 -43 -10 -25 -10 -26 4 -8 20 26 19 52 -1
60 -14 5 -15 4 -4 -9z"/>
<path d="M2710 220 c0 -5 7 -7 15 -4 8 4 15 8 15 10 0 2 -7 4 -15 4 -8 0 -15
-4 -15 -10z"/>
<path d="M2867 56 c-39 -14 -81 -45 -73 -54 3 -2 18 5 35 17 44 31 106 40 179
25 35 -7 77 -20 94 -28 17 -9 33 -14 36 -11 2 2 -21 16 -53 29 -71 32 -166 41
-218 22z"/>
<path d="M2685 26 c17 -14 39 -26 50 -25 14 0 16 2 5 6 -8 3 -31 14 -50 25
l-35 20 30 -26z"/>
</g>
</svg>
